if (_typeface_js && _typeface_js.loadFace) _typeface_js.loadFace({"glyphs":{"S":{"x_min":31.3125,"x_max":877.921875,"ha":928,"o":"m 849 708 b 443 1016 842 944 642 1016 b 59 729 255 1016 59 945 b 415 465 59 569 183 502 b 769 266 592 436 769 418 b 472 69 769 109 617 69 b 132 327 285 69 149 119 l 31 327 b 472 -25 46 61 225 -25 b 877 284 661 -25 877 41 b 524 547 877 475 700 516 b 168 747 287 587 168 618 b 443 922 168 859 287 922 b 748 708 600 922 735 877 l 849 708 "},"¦":{"x_min":117.0625,"x_max":185.109375,"ha":308,"o":"m 117 -25 l 185 -25 l 185 356 l 117 356 l 117 -25 m 117 634 l 185 634 l 185 1016 l 117 1016 l 117 634 "},"/":{"x_min":5,"x_max":548,"ha":565,"o":"m 5 -25 l 81 -25 l 548 1016 l 471 1016 l 5 -25 "},"y":{"x_min":-8,"x_max":765,"ha":772,"o":"m 389 120 l 100 722 l -8 722 l 336 -5 l 290 -105 b 149 -194 257 -177 221 -194 b 77 -191 122 -194 99 -193 l 77 -277 b 174 -280 107 -280 143 -280 b 381 -134 285 -280 329 -248 l 765 722 l 656 722 l 389 120 "},"≈":{"x_min":79,"x_max":823.53125,"ha":922,"o":"m 785 609 b 627 494 737 532 694 494 b 471 548 564 494 528 519 b 292 613 424 572 368 613 b 79 475 204 613 128 562 l 118 439 b 281 554 159 498 205 554 b 434 503 337 554 386 527 b 624 435 513 461 556 435 b 823 573 721 435 779 497 l 785 609 m 785 350 b 628 236 737 272 695 236 b 471 291 563 236 524 263 b 291 355 424 315 368 355 b 79 216 204 355 128 304 l 118 180 b 281 296 159 240 204 296 b 434 244 336 296 385 270 b 624 176 513 202 556 176 b 823 314 722 176 779 238 l 785 350 "},"Ž":{"x_min":6.9375,"x_max":875.078125,"ha":900,"o":"m 6 0 l 875 0 l 875 93 l 138 93 l 864 896 l 864 991 l 53 991 l 53 896 l 728 896 l 6 93 l 6 0 m 689 1241 l 587 1241 l 441 1100 l 294 1241 l 192 1241 l 386 1043 l 495 1043 l 689 1241 "},"Á":{"x_min":-8,"x_max":991,"ha":1003,"o":"m 703 395 l 273 395 l 490 888 l 703 395 m 873 0 l 991 0 l 550 991 l 432 991 l -8 0 l 100 0 l 232 301 l 744 301 l 873 0 m 404 1044 l 487 1044 l 684 1241 l 560 1241 l 404 1044 "},"g":{"x_min":41.328125,"x_max":833.5,"ha":926,"o":"m 735 376 b 441 86 735 193 607 86 b 142 376 271 86 142 165 b 433 658 142 554 256 658 b 735 376 633 658 735 527 m 732 581 l 730 581 b 427 744 682 691 565 744 b 41 376 161 744 41 568 b 417 0 41 94 237 0 b 730 163 599 0 691 90 l 732 163 l 732 34 b 440 -227 732 -138 625 -227 b 166 -70 201 -227 181 -148 l 74 -70 b 436 -305 82 -148 113 -305 b 833 27 622 -305 833 -238 l 833 722 l 732 722 l 732 581 "},"²":{"x_min":46.28125,"x_max":525.390625,"ha":603,"o":"m 525 466 l 138 466 b 375 618 153 502 191 527 b 518 805 454 656 518 705 b 296 983 518 888 464 983 b 59 773 152 983 59 922 l 136 773 b 296 922 137 843 167 922 b 442 805 393 922 442 880 b 253 626 442 729 392 695 b 46 397 73 536 54 465 l 525 397 l 525 466 "},"–":{"x_min":0,"x_max":680.5625,"ha":694,"o":"m 0 337 l 680 337 l 680 423 l 0 423 l 0 337 "},"ë":{"x_min":53.28125,"x_max":837.28125,"ha":900,"o":"m 154 413 b 445 658 177 590 315 658 b 736 413 580 658 707 591 l 154 413 m 718 230 b 438 63 683 120 607 63 b 154 336 258 63 154 186 l 837 336 b 438 744 837 663 620 744 b 53 361 174 744 53 562 b 438 -22 53 184 148 -22 b 819 230 672 -22 778 102 l 718 230 m 237 838 l 337 838 l 337 991 l 237 991 l 237 838 m 544 838 l 645 838 l 645 991 l 544 991 l 544 838 "},"ƒ":{"x_min":38,"x_max":808,"ha":928,"o":"m 218 494 l 402 494 l 301 -1 b 145 -186 269 -159 244 -186 b 54 -179 115 -186 84 -181 l 38 -262 b 157 -272 77 -268 118 -272 b 397 -20 333 -272 369 -152 l 503 494 l 689 494 l 704 555 l 515 555 l 552 736 b 699 897 582 881 624 897 b 793 888 725 897 752 894 l 808 972 b 692 983 767 979 727 983 b 459 772 597 983 499 961 l 414 555 l 231 555 l 218 494 "},"Î":{"x_min":-98,"x_max":400.171875,"ha":308,"o":"m 100 0 l 201 0 l 201 991 l 100 991 l 100 0 m -98 1043 l 4 1043 l 151 1184 l 298 1043 l 400 1043 l 205 1241 l 96 1241 l -98 1043 "},"e":{"x_min":53.28125,"x_max":837.28125,"ha":900,"o":"m 154 413 b 445 658 177 590 315 658 b 736 413 580 658 707 591 l 154 413 m 718 230 b 438 63 683 120 607 63 b 154 336 258 63 154 186 l 837 336 b 438 744 837 663 620 744 b 53 361 174 744 53 562 b 438 -22 53 184 148 -22 b 819 230 672 -22 778 102 l 718 230 "},"Ã":{"x_min":-8,"x_max":991,"ha":1003,"o":"m 703 395 l 273 395 l 490 888 l 703 395 m 873 0 l 991 0 l 550 991 l 432 991 l -8 0 l 100 0 l 232 301 l 744 301 l 873 0 m 683 1218 b 609 1145 679 1188 669 1145 b 502 1181 573 1145 539 1163 b 379 1218 467 1200 427 1218 b 276 1165 329 1218 296 1195 b 239 1068 256 1134 246 1097 l 299 1068 b 373 1140 303 1097 313 1140 b 480 1104 409 1140 443 1122 b 603 1068 516 1086 555 1068 b 706 1120 654 1068 686 1091 b 743 1218 728 1151 737 1188 l 683 1218 "},"J":{"x_min":34.03125,"x_max":666.953125,"ha":772,"o":"m 134 325 l 34 325 b 344 -25 36 201 40 -25 b 666 277 566 -25 666 100 l 666 991 l 566 991 l 566 305 b 349 61 566 111 484 61 b 134 288 198 61 133 145 l 134 325 "},"»":{"x_min":116.1875,"x_max":580.890625,"ha":694,"o":"m 270 380 l 116 250 l 116 143 l 329 330 l 329 430 l 116 618 l 116 511 l 270 380 m 521 380 l 367 250 l 367 143 l 580 330 l 580 430 l 367 618 l 367 511 l 521 380 "},"∆":{"x_min":48.984375,"x_max":999.046875,"ha":1069,"o":"m 48 0 l 999 0 l 999 66 l 578 998 l 472 998 l 48 66 l 48 0 m 142 72 l 415 672 b 518 913 445 743 502 869 l 525 913 b 639 643 545 851 611 713 l 896 72 l 142 72 "},"©":{"x_min":34.03125,"x_max":1054.859375,"ha":1111,"o":"m 102 495 b 544 955 102 750 295 955 b 986 497 794 955 986 750 b 544 36 986 240 794 36 b 102 495 295 36 102 240 m 743 388 b 560 234 728 301 660 234 b 328 495 415 234 328 359 b 556 755 328 643 408 755 b 743 608 658 755 726 691 l 819 608 b 556 825 800 747 690 825 b 251 495 364 825 251 686 b 560 165 251 309 372 165 b 819 388 690 165 788 256 l 743 388 m 34 495 b 544 -25 34 208 262 -25 b 1054 495 826 -25 1054 208 b 544 1016 1054 783 826 1016 b 34 495 262 1016 34 783 "},"˘":{"x_min":-99,"x_max":350,"ha":256,"o":"m -99 1016 b 125 833 -88 891 -6 833 b 350 1016 257 833 339 891 l 281 1016 b 125 911 276 940 220 911 b -30 1016 30 911 -25 940 l -99 1016 "},"≥":{"x_min":81.671875,"x_max":819.390625,"ha":922,"o":"m 91 863 l 91 791 l 747 488 l 747 486 l 91 183 l 91 111 l 818 455 l 818 519 l 91 863 m 819 -11 l 819 48 l 81 48 l 81 -11 l 819 -11 "},"ò":{"x_min":53.078125,"x_max":856.140625,"ha":928,"o":"m 153 361 b 454 658 153 534 264 658 b 755 361 645 658 755 534 b 454 63 755 187 645 63 b 153 361 264 63 153 187 m 53 361 b 454 -22 53 159 182 -22 b 856 361 726 -22 856 159 b 454 744 856 562 726 744 b 53 361 182 744 53 562 m 385 1027 l 261 1027 l 458 830 l 541 830 l 385 1027 "},"^":{"x_min":60,"x_max":757,"ha":833,"o":"m 680 331 l 757 331 l 442 961 l 374 961 l 60 331 l 136 331 l 408 875 l 680 331 "},"«":{"x_min":99.109375,"x_max":564.8125,"ha":694,"o":"m 351 330 l 564 143 l 564 250 l 411 380 l 564 511 l 564 618 l 351 430 l 351 330 m 99 330 l 312 143 l 312 250 l 159 380 l 312 511 l 312 618 l 99 430 l 99 330 "},"D":{"x_min":89.828125,"x_max":992.25,"ha":1081,"o":"m 89 0 l 577 0 b 992 495 849 0 992 216 b 562 991 992 806 845 991 l 89 991 l 89 0 m 190 897 l 558 897 b 883 495 782 897 883 758 b 558 94 883 191 732 94 l 190 94 l 190 897 "},"∙":{"x_min":99.359375,"x_max":279.03125,"ha":386,"o":"m 99 433 b 189 341 99 383 140 341 b 279 433 238 341 279 383 b 189 525 279 483 238 525 b 99 433 140 525 99 483 "},"ł":{"x_min":0,"x_max":250.4375,"ha":256,"o":"m 175 562 l 175 1000 l 74 1000 l 74 493 l 0 434 l 0 356 l 74 415 l 74 0 l 175 0 l 175 484 l 250 541 l 250 619 l 175 562 "},"ÿ":{"x_min":-8.171875,"x_max":764.953125,"ha":772,"o":"m 389 120 l 100 722 l -8 722 l 336 -5 l 289 -105 b 149 -194 257 -177 221 -194 b 77 -191 122 -194 99 -193 l 77 -277 b 174 -280 107 -280 142 -280 b 381 -134 285 -280 329 -248 l 764 722 l 656 722 l 389 120 m 174 838 l 274 838 l 274 991 l 174 991 l 174 838 m 481 838 l 582 838 l 582 991 l 481 991 l 481 838 "},"Ł":{"x_min":-16.328125,"x_max":807.140625,"ha":824,"o":"m 190 500 l 190 991 l 89 991 l 89 429 l -16 354 l -16 268 l 89 343 l 89 0 l 807 0 l 807 94 l 190 94 l 190 413 l 476 616 l 476 702 l 190 500 "},"í":{"x_min":38.109375,"x_max":318.5,"ha":256,"o":"m 74 0 l 175 0 l 175 722 l 74 722 l 74 0 m 38 830 l 121 830 l 318 1027 l 194 1027 l 38 830 "},"ˆ":{"x_min":-124,"x_max":374,"ha":256,"o":"m -124 830 l -21 830 l 125 971 l 271 830 l 374 830 l 179 1028 l 70 1028 l -124 830 "},"w":{"x_min":0,"x_max":1210,"ha":1235,"o":"m 873 135 l 656 722 l 547 722 l 333 131 l 108 722 l 0 722 l 280 0 l 389 0 l 600 578 l 813 0 l 922 0 l 1210 722 l 1101 722 l 873 135 "},"$":{"x_min":31.3125,"x_max":877.921875,"ha":928,"o":"m 417 550 b 168 718 281 572 168 608 b 417 888 168 827 266 883 l 417 550 m 494 440 b 769 258 696 413 769 350 b 494 72 769 116 632 73 l 494 440 m 417 72 b 132 318 258 81 132 140 l 31 318 b 417 -22 32 75 196 -11 l 417 -156 l 494 -156 l 494 -22 b 877 276 677 -19 877 48 b 494 534 877 422 770 497 l 494 888 b 748 687 627 879 736 831 l 849 687 b 494 983 842 897 675 973 l 494 1068 l 417 1068 l 417 983 b 59 708 236 979 59 908 b 417 451 59 519 236 480 l 417 72 "},"∫":{"x_min":9.53125,"x_max":510.421875,"ha":538,"o":"m 510 1155 b 427 1177 494 1165 458 1177 b 295 1127 381 1177 334 1165 b 215 838 236 1073 215 986 b 238 127 215 625 238 348 b 176 -119 238 -22 210 -81 b 103 -151 159 -138 129 -151 b 28 -130 70 -151 40 -137 l 9 -191 b 110 -218 27 -204 72 -218 b 247 -152 163 -218 216 -195 b 315 125 280 -109 315 -29 b 294 829 315 344 294 615 b 351 1081 294 959 308 1037 b 431 1112 372 1105 408 1112 b 492 1094 451 1112 480 1104 l 510 1155 "},"\\":{"x_min":4.1875,"x_max":550,"ha":565,"o":"m 473 -25 l 550 -25 l 80 1016 l 4 1016 l 473 -25 "},"Ì":{"x_min":-42.1875,"x_max":238.1875,"ha":308,"o":"m 100 0 l 201 0 l 201 991 l 100 991 l 100 0 m 81 1241 l -42 1241 l 155 1044 l 238 1044 l 81 1241 "},"µ":{"x_min":77.578125,"x_max":779.921875,"ha":875,"o":"m 679 0 l 779 0 l 779 722 l 679 722 l 679 330 b 392 64 679 166 589 64 b 178 257 280 64 178 114 l 178 722 l 77 722 l 77 -280 l 178 -280 l 178 47 b 383 -22 221 1 291 -22 b 676 141 540 -22 646 65 l 679 141 l 679 0 "},"Ç":{"x_min":55.8125,"x_max":1053.5,"ha":1132,"o":"m 952 377 b 573 68 918 188 804 68 b 164 495 277 68 164 274 b 573 921 164 784 332 921 b 944 656 748 921 914 845 l 1045 656 b 573 1015 1015 917 785 1015 b 55 495 193 1015 55 721 b 521 -22 55 195 235 -2 l 462 -109 l 485 -132 b 558 -117 502 -124 529 -117 b 628 -167 589 -117 628 -129 b 536 -220 628 -203 596 -220 b 423 -200 495 -220 442 -206 l 406 -249 b 541 -272 431 -257 492 -272 b 713 -167 645 -272 713 -224 b 596 -72 713 -109 665 -72 b 541 -79 573 -72 553 -75 l 539 -77 l 575 -25 b 1053 377 853 -24 1031 156 l 952 377 "},"’":{"x_min":118.421875,"x_max":247.71875,"ha":386,"o":"m 130 838 l 179 838 b 118 697 179 769 172 722 l 118 644 b 247 836 193 665 247 720 l 247 991 l 130 991 l 130 838 "},"-":{"x_min":95.28125,"x_max":509.0625,"ha":617,"o":"m 95 329 l 509 329 l 509 431 l 95 431 l 95 329 "},"Q":{"x_min":51.75,"x_max":1107.96875,"ha":1183,"o":"m 647 210 l 774 110 b 579 69 714 81 647 69 b 160 495 366 69 160 196 b 579 921 160 794 366 921 b 999 495 793 921 999 794 b 853 159 999 335 940 226 l 701 278 l 647 210 m 1080 -19 l 935 95 b 1107 495 1039 178 1107 313 b 579 1016 1107 845 856 1016 b 51 495 303 1016 51 845 b 579 -25 51 145 303 -25 b 860 44 680 -25 777 -3 l 1027 -87 l 1080 -19 "},"M":{"x_min":89.828125,"x_max":1245.421875,"ha":1363,"o":"m 669 129 l 236 991 l 89 991 l 89 0 l 190 0 l 190 858 l 193 858 l 620 0 l 713 0 l 1141 856 l 1144 856 l 1144 0 l 1245 0 l 1245 991 l 1102 991 l 669 129 "},"C":{"x_min":55.8125,"x_max":1053.5,"ha":1132,"o":"m 952 377 b 573 69 918 188 804 69 b 164 495 277 69 164 275 b 573 922 164 784 332 922 b 944 656 748 922 914 845 l 1045 656 b 573 1016 1015 918 785 1016 b 55 495 193 1016 55 722 b 573 -25 55 177 257 -25 b 1053 377 852 -25 1031 155 l 952 377 "},"œ":{"x_min":39.78125,"x_max":1448.53125,"ha":1518,"o":"m 1330 230 b 1081 63 1294 120 1215 63 b 802 336 890 63 804 162 l 1448 336 b 1081 744 1448 663 1226 744 b 755 550 906 744 804 659 b 414 744 702 656 619 744 b 39 361 177 744 39 562 b 408 -22 39 147 182 -22 b 748 168 610 -22 702 80 b 1081 -22 795 33 936 -22 b 1430 230 1278 -22 1390 102 l 1330 230 m 140 361 b 433 658 140 534 248 658 b 709 361 629 658 709 520 b 429 63 709 163 599 59 b 140 361 250 63 140 187 m 802 413 b 1081 658 831 586 921 658 b 1347 413 1188 658 1319 591 l 802 413 "},"!":{"x_min":142.921875,"x_max":259.96875,"ha":411,"o":"m 142 0 l 259 0 l 259 152 l 142 152 l 142 0 m 171 256 l 231 256 l 255 729 l 255 991 l 147 991 l 147 729 l 171 256 "},"ç":{"x_min":40.828125,"x_max":797.609375,"ha":849,"o":"m 696 257 b 439 63 671 145 588 63 b 141 360 247 63 141 181 b 439 657 141 527 236 657 b 691 485 564 657 660 609 l 792 485 b 439 743 775 589 681 743 b 40 360 171 743 40 577 b 386 -18 40 150 163 0 l 323 -109 l 347 -132 b 419 -117 363 -124 390 -117 b 490 -167 450 -117 490 -129 b 397 -220 490 -203 457 -220 b 284 -200 356 -220 303 -206 l 268 -249 b 402 -272 292 -257 353 -272 b 574 -167 506 -272 574 -224 b 457 -72 574 -109 526 -72 b 402 -79 434 -72 415 -75 l 400 -77 l 438 -22 l 439 -22 b 797 257 696 -22 778 163 l 696 257 "},"È":{"x_min":106.171875,"x_max":890.171875,"ha":951,"o":"m 106 0 l 890 0 l 890 94 l 206 94 l 206 466 l 854 466 l 854 561 l 206 561 l 206 897 l 879 897 l 879 991 l 106 991 l 106 0 m 397 1241 l 273 1241 l 470 1044 l 553 1044 l 397 1241 "},"ﬁ":{"x_min":-8.171875,"x_max":605.703125,"ha":694,"o":"m 145 0 l 246 0 l 246 644 l 446 644 l 446 722 l 246 722 l 246 806 b 363 913 246 890 273 913 b 457 908 394 913 426 910 l 457 994 b 344 999 426 997 382 999 b 145 817 212 999 145 954 l 145 722 l -8 722 l -8 644 l 145 644 l 145 0 m 504 0 l 605 0 l 605 722 l 504 722 l 504 0 m 504 847 l 605 847 l 605 999 l 504 999 l 504 847 "},"{":{"x_min":65.328125,"x_max":371.578125,"ha":489,"o":"m 65 337 b 147 147 127 337 147 298 l 147 -95 b 292 -263 147 -198 190 -263 l 371 -263 l 371 -211 l 304 -211 b 239 -95 264 -211 239 -188 l 239 147 b 133 362 240 293 181 350 l 133 365 b 239 580 181 377 240 434 l 239 823 b 304 938 239 916 264 938 l 371 938 l 371 991 l 292 991 b 147 823 190 991 147 926 l 147 580 b 65 390 147 429 127 390 l 65 337 "},"X":{"x_min":-11,"x_max":919,"ha":926,"o":"m -11 0 l 118 0 l 453 426 l 785 0 l 919 0 l 525 508 l 906 991 l 781 991 l 456 583 l 140 991 l 5 991 l 383 502 l -11 0 "},"ô":{"x_min":53.078125,"x_max":856.140625,"ha":928,"o":"m 153 361 b 454 658 153 535 264 658 b 755 361 645 658 755 535 b 454 64 755 187 645 64 b 153 361 264 64 153 187 m 53 361 b 454 -21 53 160 182 -21 b 856 361 726 -21 856 160 b 454 744 856 562 726 744 b 53 361 182 744 53 562 m 205 830 l 307 830 l 454 971 l 601 830 l 703 830 l 509 1028 l 400 1028 l 205 830 "},"¼":{"x_min":17.859375,"x_max":1295.828125,"ha":1389,"o":"m 1110 198 l 863 198 l 1108 483 l 1110 483 l 1110 198 m 1110 0 l 1186 0 l 1186 137 l 1295 137 l 1295 198 l 1186 198 l 1186 586 l 1118 586 l 786 198 l 786 137 l 1110 137 l 1110 0 m 239 -22 l 324 -22 l 902 983 l 818 983 l 239 -22 m 198 397 l 275 397 l 275 983 l 215 983 b 61 875 194 887 153 875 l 17 875 l 17 822 l 198 822 l 198 397 "},"#":{"x_min":112,"x_max":798,"ha":928,"o":"m 223 0 l 291 0 l 335 313 l 528 313 l 484 0 l 553 0 l 596 313 l 759 313 l 759 375 l 604 375 l 634 588 l 798 588 l 798 650 l 642 650 l 686 963 l 618 963 l 574 650 l 381 650 l 425 963 l 357 963 l 313 650 l 150 650 l 150 588 l 305 588 l 275 375 l 112 375 l 112 313 l 267 313 l 223 0 m 536 375 l 343 375 l 373 588 l 566 588 l 536 375 "},"Ê":{"x_min":106.171875,"x_max":890.171875,"ha":951,"o":"m 106 0 l 890 0 l 890 93 l 206 93 l 206 466 l 854 466 l 854 560 l 206 560 l 206 896 l 879 896 l 879 991 l 106 991 l 106 0 m 217 1043 l 319 1043 l 466 1184 l 613 1043 l 715 1043 l 521 1241 l 412 1241 l 217 1043 "},")":{"x_min":46.28125,"x_max":367.5,"ha":489,"o":"m 122 -263 b 367 363 133 -251 367 4 b 122 991 367 723 133 979 l 46 991 b 266 363 133 866 266 676 b 46 -263 266 51 133 -138 l 122 -263 "},"Å":{"x_min":-8.171875,"x_max":990.890625,"ha":1003,"o":"m 703 395 l 273 395 l 490 888 l 703 395 m 873 0 l 990 0 l 549 991 l 432 991 l -8 0 l 100 0 l 232 301 l 744 301 l 873 0 m 341 1170 b 491 1018 341 1087 408 1018 b 641 1170 571 1018 641 1086 b 491 1323 641 1255 571 1323 b 341 1170 408 1323 341 1254 m 393 1170 b 491 1270 393 1226 436 1270 b 589 1170 545 1270 589 1226 b 491 1070 589 1115 545 1070 b 393 1170 436 1070 393 1115 "},"ø":{"x_min":53,"x_max":856,"ha":928,"o":"m 216 168 b 153 361 175 219 153 284 b 454 657 153 534 263 657 b 659 588 540 657 609 632 l 216 168 m 53 14 l 85 -22 l 179 68 b 454 -22 244 12 335 -22 b 856 361 726 -22 856 159 b 763 620 856 459 824 552 l 856 707 l 823 744 l 729 653 b 454 744 665 709 574 744 b 53 361 182 744 53 562 b 145 101 53 263 82 172 l 53 14 m 692 553 b 755 361 733 503 755 437 b 454 64 755 187 644 64 b 248 133 367 64 297 89 l 692 553 "},"â":{"x_min":40.875,"x_max":842.5625,"ha":849,"o":"m 641 279 b 345 55 641 130 481 55 b 141 201 236 55 141 89 b 326 335 141 287 209 323 b 641 389 528 354 596 360 l 641 279 m 164 500 b 407 658 171 615 247 658 b 641 516 573 658 641 621 b 393 421 641 446 613 433 b 40 194 238 412 40 390 b 315 -21 40 32 194 -21 b 646 122 547 -21 615 75 l 649 122 b 758 -5 650 65 656 -5 b 842 5 790 -5 822 1 l 842 75 b 789 72 824 73 807 72 b 733 153 750 72 733 93 l 733 530 b 409 744 733 669 646 744 b 72 500 167 744 87 651 l 164 500 m 167 830 l 269 830 l 416 971 l 563 830 l 665 830 l 470 1028 l 362 1028 l 167 830 "},"}":{"x_min":107.53125,"x_max":413.78125,"ha":489,"o":"m 107 -263 l 186 -263 b 332 -95 288 -263 332 -198 l 332 147 b 413 337 332 298 351 337 l 413 390 b 332 580 351 390 332 429 l 332 823 b 186 991 332 926 288 991 l 107 991 l 107 938 l 174 938 b 239 823 215 938 239 916 l 239 580 b 345 365 238 434 298 377 l 345 362 b 239 147 298 350 238 293 l 239 -95 b 174 -211 239 -188 215 -211 l 107 -211 l 107 -263 "},"‰":{"x_min":8.171875,"x_max":1580.25,"ha":1621,"o":"m 1342 47 b 1188 247 1245 47 1188 122 b 1342 447 1188 372 1245 447 b 1495 247 1438 447 1495 372 b 1342 47 1495 122 1438 47 m 163 -22 l 243 -22 l 891 983 l 811 983 l 163 -22 m 246 513 b 92 713 149 513 92 588 b 246 913 92 838 149 913 b 400 713 343 913 400 838 b 246 513 400 588 343 513 m 1342 -22 b 1580 247 1478 -22 1580 69 b 1342 516 1580 425 1478 516 b 1103 247 1205 516 1103 425 b 1342 -22 1103 69 1205 -22 m 246 444 b 484 713 382 444 484 536 b 246 983 484 891 382 983 b 8 713 110 983 8 891 b 246 444 8 536 110 444 m 808 -22 b 1046 247 944 -22 1046 69 b 808 516 1046 425 944 516 b 570 247 672 516 570 425 b 808 -22 570 69 672 -22 m 808 47 b 654 247 711 47 654 122 b 808 447 654 372 711 447 b 962 247 905 447 962 372 b 808 47 962 122 905 47 "},"Ä":{"x_min":-8.171875,"x_max":990.890625,"ha":1003,"o":"m 703 395 l 273 395 l 490 888 l 703 395 m 873 0 l 990 0 l 549 991 l 432 991 l -8 0 l 100 0 l 232 301 l 744 301 l 873 0 m 287 1052 l 387 1052 l 387 1205 l 287 1205 l 287 1052 m 594 1052 l 695 1052 l 695 1205 l 594 1205 l 594 1052 "},"¸":{"x_min":-23.140625,"x_max":283.109375,"ha":256,"o":"m 32 -109 l 55 -132 b 127 -117 72 -124 99 -117 b 198 -167 159 -117 198 -129 b 106 -220 198 -203 166 -220 b -6 -200 65 -220 12 -206 l -23 -249 b 111 -272 1 -257 62 -272 b 283 -167 215 -272 283 -224 b 166 -72 283 -109 235 -72 b 111 -79 142 -72 123 -75 l 108 -77 l 166 1 l 110 1 l 32 -109 "},"a":{"x_min":40.828125,"x_max":842.53125,"ha":849,"o":"m 641 279 b 345 55 641 130 481 55 b 141 201 236 55 141 88 b 326 334 141 287 209 323 b 641 388 528 354 596 359 l 641 279 m 164 500 b 406 658 171 615 247 658 b 641 516 573 658 641 620 b 393 420 641 445 613 433 b 40 194 238 412 40 390 b 315 -22 40 31 194 -22 b 646 122 547 -22 615 75 l 649 122 b 758 -5 650 65 656 -5 b 842 5 790 -5 822 1 l 842 75 b 789 72 824 73 807 72 b 733 152 749 72 733 93 l 733 530 b 409 744 733 669 646 744 b 72 500 167 744 87 651 l 164 500 "},"—":{"x_min":0,"x_max":1361.109375,"ha":1389,"o":"m 0 337 l 1361 337 l 1361 423 l 0 423 l 0 337 "},"=":{"x_min":63.96875,"x_max":752.703125,"ha":833,"o":"m 63 451 l 752 451 l 752 520 l 63 520 l 63 451 m 63 181 l 752 181 l 752 251 l 63 251 l 63 181 "},"N":{"x_min":89.828125,"x_max":993.609375,"ha":1106,"o":"m 89 0 l 190 0 l 190 847 l 193 847 l 876 0 l 993 0 l 993 991 l 892 991 l 892 144 l 890 144 l 210 991 l 89 991 l 89 0 "},"˚":{"x_min":-24.5,"x_max":274.9375,"ha":256,"o":"m -24 929 b 125 776 -24 845 42 776 b 274 929 205 776 274 844 b 125 1081 274 1013 205 1081 b -24 929 42 1081 -24 1012 m 27 929 b 125 1029 27 984 70 1029 b 223 929 179 1029 223 984 b 125 829 223 873 179 829 b 27 929 70 829 27 873 "},"ú":{"x_min":77.578125,"x_max":779.921875,"ha":875,"o":"m 679 0 l 779 0 l 779 722 l 679 722 l 679 330 b 392 63 679 166 589 63 b 178 256 264 63 178 113 l 178 722 l 77 722 l 77 275 b 383 -22 77 102 148 -22 b 676 141 540 -22 646 65 l 679 141 l 679 0 m 341 830 l 424 830 l 622 1027 l 498 1027 l 341 830 "},"⁄":{"x_min":-218,"x_max":445,"ha":232,"o":"m -218 -22 l -133 -22 l 445 983 l 360 983 l -218 -22 "},"2":{"x_min":70.78125,"x_max":808.5,"ha":928,"o":"m 808 94 l 196 94 b 562 373 220 175 295 225 b 797 686 694 447 797 518 b 457 983 797 826 714 983 b 91 634 234 983 91 880 l 191 634 b 455 897 194 765 240 897 b 696 687 605 897 696 829 b 405 387 696 556 620 502 b 70 0 115 231 83 112 l 808 0 l 808 94 "},"ü":{"x_min":77.578125,"x_max":779.921875,"ha":875,"o":"m 679 0 l 779 0 l 779 722 l 679 722 l 679 330 b 392 63 679 166 589 63 b 178 256 264 63 178 113 l 178 722 l 77 722 l 77 275 b 383 -22 77 102 148 -22 b 676 141 540 -22 646 65 l 679 141 l 679 0 m 224 838 l 325 838 l 325 991 l 224 991 l 224 838 m 532 838 l 632 838 l 632 991 l 532 991 l 532 838 "},"¯":{"x_min":-137.46875,"x_max":387.921875,"ha":256,"o":"m -137 890 l 387 890 l 387 968 l -137 968 l -137 890 "},"Z":{"x_min":6.9375,"x_max":875.328125,"ha":900,"o":"m 6 0 l 875 0 l 875 94 l 138 94 l 864 897 l 864 991 l 53 991 l 53 897 l 728 897 l 6 94 l 6 0 "},"u":{"x_min":77.578125,"x_max":779.921875,"ha":875,"o":"m 679 0 l 779 0 l 779 722 l 679 722 l 679 330 b 392 63 679 166 589 63 b 178 256 264 63 178 113 l 178 722 l 77 722 l 77 275 b 383 -22 77 102 148 -22 b 676 141 540 -22 646 65 l 679 141 l 679 0 "},"˜":{"x_min":-127,"x_max":376.609375,"ha":256,"o":"m 316 1004 b 243 931 312 975 303 931 b 135 968 206 931 172 950 b 13 1004 100 986 60 1004 b -90 951 -37 1004 -69 981 b -127 854 -110 920 -120 883 l -67 854 b 6 926 -63 883 -53 926 b 113 890 43 926 77 908 b 236 854 149 872 188 854 b 339 906 288 854 319 877 b 376 1004 361 937 371 975 l 316 1004 "},"Ó":{"x_min":51.71875,"x_max":1107.953125,"ha":1183,"o":"m 51 495 b 579 -25 51 145 303 -25 b 1107 495 856 -25 1107 145 b 579 1016 1107 845 856 1016 b 51 495 303 1016 51 845 m 160 495 b 579 922 160 794 366 922 b 999 495 793 922 999 794 b 579 69 999 197 793 69 b 160 495 366 69 160 197 m 492 1044 l 575 1044 l 773 1241 l 649 1241 l 492 1044 "},"k":{"x_min":77.578125,"x_max":785.359375,"ha":797,"o":"m 77 0 l 178 0 l 178 258 l 337 382 l 651 0 l 785 0 l 412 448 l 759 722 l 609 722 l 178 370 l 178 1000 l 77 1000 l 77 0 "},"ˇ":{"x_min":-124,"x_max":374,"ha":256,"o":"m 374 1028 l 271 1028 l 125 887 l -21 1028 l -124 1028 l 70 830 l 179 830 l 374 1028 "},"Ù":{"x_min":95.28125,"x_max":963.671875,"ha":1081,"o":"m 963 991 l 862 991 l 862 383 b 529 69 862 123 698 69 b 196 383 360 69 196 123 l 196 991 l 95 991 l 95 383 b 529 -25 95 202 144 -25 b 963 383 914 -25 963 202 l 963 991 m 460 1241 l 336 1241 l 533 1044 l 616 1044 l 460 1241 "},"Ÿ":{"x_min":-20.421875,"x_max":954.140625,"ha":953,"o":"m 416 0 l 517 0 l 517 416 l 954 991 l 823 991 l 466 519 l 110 991 l -20 991 l 416 416 l 416 0 m 262 1052 l 363 1052 l 363 1205 l 262 1205 l 262 1052 m 570 1052 l 671 1052 l 671 1205 l 570 1205 l 570 1052 "},"€":{"x_min":13.6875,"x_max":896.171875,"ha":928,"o":"m 896 851 b 788 940 874 879 841 913 b 572 983 713 977 630 983 b 256 862 485 983 354 972 b 152 633 200 800 164 711 l 51 633 l 13 563 l 143 563 b 143 415 138 513 138 463 l 51 415 l 13 345 l 149 345 b 243 111 160 258 196 169 b 551 -22 333 -1 456 -22 b 773 22 622 -22 711 -6 b 877 94 813 40 849 68 l 877 213 b 760 112 845 173 809 140 b 557 63 692 75 630 63 b 321 165 482 63 392 75 b 251 345 283 213 259 281 l 621 345 l 659 415 l 244 415 b 244 563 240 463 240 513 l 734 563 l 772 633 l 253 633 b 324 802 263 694 289 761 b 569 897 398 888 512 897 b 746 861 621 897 686 891 b 844 768 798 834 825 802 l 896 851 "},"¢":{"x_min":76.21875,"x_max":833,"ha":928,"o":"m 436 65 b 176 361 268 80 176 194 b 436 656 176 506 254 638 l 436 65 m 436 -172 l 496 -172 l 496 -22 b 833 258 736 -11 813 166 l 732 258 b 496 63 707 151 631 72 l 496 658 b 726 486 611 652 696 602 l 827 486 b 496 744 811 587 722 734 l 496 861 l 436 861 l 436 744 b 76 361 163 726 76 511 b 436 -20 76 147 204 -5 l 436 -172 "},"Ω":{"x_min":85.75,"x_max":1106.578125,"ha":1218,"o":"m 337 70 l 85 70 l 85 0 l 468 0 l 468 52 b 200 498 333 119 200 279 b 601 913 200 720 357 913 b 993 502 854 913 993 691 b 725 52 993 268 858 119 l 725 0 l 1106 0 l 1106 70 l 852 70 l 852 75 b 1084 513 967 147 1084 301 b 600 984 1084 756 890 984 b 108 509 326 984 108 784 b 337 75 108 305 217 158 l 337 70 "},"ß":{"x_min":77.578125,"x_max":794.890625,"ha":875,"o":"m 362 498 l 412 498 b 694 288 588 498 694 445 b 438 63 694 162 611 63 b 351 73 409 63 381 68 l 351 -11 b 454 -22 378 -15 415 -22 b 794 275 669 -22 794 97 b 582 551 794 505 628 543 l 582 554 b 745 750 673 575 745 638 b 417 1000 745 854 681 1000 b 77 702 175 1000 77 891 l 77 0 l 178 0 l 178 698 b 417 913 178 826 227 913 b 645 748 534 913 645 869 b 417 584 645 620 541 584 b 362 588 389 584 375 587 l 362 498 "},"é":{"x_min":53.28125,"x_max":837.28125,"ha":900,"o":"m 154 413 b 445 658 177 590 315 658 b 736 413 580 658 707 591 l 154 413 m 718 230 b 438 63 683 120 607 63 b 154 336 258 63 154 186 l 837 336 b 438 744 837 663 620 744 b 53 361 174 744 53 562 b 438 -22 53 184 148 -22 b 819 230 672 -22 778 102 l 718 230 m 354 830 l 437 830 l 634 1027 l 510 1027 l 354 830 "},"s":{"x_min":31.3125,"x_max":725.46875,"ha":772,"o":"m 696 508 b 360 744 684 659 590 744 b 55 530 155 744 55 655 b 353 327 55 402 133 350 b 624 201 574 305 624 273 b 389 63 624 93 529 63 b 123 226 208 63 141 105 l 31 226 b 389 -22 31 52 164 -22 b 725 206 611 -22 725 63 b 419 415 725 347 635 386 b 156 534 204 444 156 459 b 360 658 156 634 254 658 b 604 508 507 658 578 625 l 696 508 "},"B":{"x_min":89.828125,"x_max":951.421875,"ha":1029,"o":"m 89 0 l 630 0 b 951 283 779 0 951 76 b 745 526 951 411 873 506 l 745 529 b 913 741 861 556 913 645 b 642 991 913 881 833 991 l 89 991 l 89 0 m 190 897 l 623 897 b 812 737 733 897 812 858 b 589 561 812 605 725 561 l 190 561 l 190 897 m 190 466 l 638 466 b 842 283 755 466 842 426 b 613 94 842 147 744 94 l 190 94 l 190 466 "},"…":{"x_min":168.78125,"x_max":1192.328125,"ha":1389,"o":"m 168 0 l 285 0 l 285 152 l 168 152 l 168 0 m 622 0 l 739 0 l 739 152 l 622 152 l 622 0 m 1075 0 l 1192 0 l 1192 152 l 1075 152 l 1075 0 "},"?":{"x_min":73.5,"x_max":778.5625,"ha":900,"o":"m 174 681 b 426 922 176 820 249 922 b 677 730 568 922 677 850 b 547 537 677 633 616 590 b 368 256 378 408 368 402 l 461 256 b 583 454 461 350 465 368 b 778 730 717 550 778 602 b 426 1016 778 929 607 1016 b 73 681 189 1016 73 863 l 174 681 m 356 0 l 473 0 l 473 152 l 356 152 l 356 0 "},"H":{"x_min":89.828125,"x_max":993.609375,"ha":1106,"o":"m 89 0 l 190 0 l 190 477 l 892 477 l 892 0 l 993 0 l 993 991 l 892 991 l 892 572 l 190 572 l 190 991 l 89 991 l 89 0 "},"î":{"x_min":-123.859375,"x_max":374.3125,"ha":256,"o":"m 74 0 l 175 0 l 175 722 l 74 722 l 74 0 m -123 830 l -21 830 l 125 971 l 272 830 l 374 830 l 179 1028 l 70 1028 l -123 830 "},"c":{"x_min":40.828125,"x_max":797.609375,"ha":849,"o":"m 696 258 b 439 63 671 145 588 63 b 141 361 247 63 141 181 b 439 658 141 527 236 658 b 691 486 564 658 660 609 l 792 486 b 439 744 775 590 681 744 b 40 361 171 744 40 577 b 439 -22 40 134 183 -22 b 797 258 696 -22 778 163 l 696 258 "},"¶":{"x_min":57.171875,"x_max":656.0625,"ha":833,"o":"m 338 -216 l 415 -216 l 415 930 l 579 930 l 579 -216 l 656 -216 l 656 991 l 360 991 b 57 719 170 991 57 894 b 338 455 57 576 179 455 l 338 -216 "},"−":{"x_min":63.96875,"x_max":752.703125,"ha":833,"o":"m 63 316 l 752 316 l 752 386 l 63 386 l 63 316 "},"≠":{"x_min":81.890625,"x_max":822.109375,"ha":922,"o":"m 632 734 l 583 761 l 496 573 l 81 573 l 81 512 l 469 512 l 359 276 l 81 276 l 81 215 l 330 215 l 252 48 l 301 22 l 392 215 l 822 215 l 822 276 l 418 276 l 530 512 l 822 512 l 822 573 l 556 573 l 632 734 "},"•":{"x_min":98,"x_max":583.921875,"ha":696,"o":"m 98 495 b 340 248 98 358 205 248 b 583 495 475 248 583 358 b 340 744 583 633 475 744 b 98 495 205 744 98 633 "},"¥":{"x_min":-9.53125,"x_max":918.75,"ha":928,"o":"m 404 269 l 123 269 l 123 200 l 404 200 l 404 0 l 504 0 l 504 200 l 785 200 l 785 269 l 504 269 l 504 402 l 515 418 l 785 418 l 785 487 l 567 487 l 918 961 l 801 961 l 454 488 l 107 961 l -9 961 l 341 487 l 123 487 l 123 418 l 393 418 l 404 402 l 404 269 "},"(":{"x_min":111.609375,"x_max":432.828125,"ha":489,"o":"m 356 991 b 111 363 345 979 111 723 b 356 -263 111 4 345 -251 l 432 -263 b 212 363 345 -138 212 51 b 432 991 212 676 345 866 l 356 991 "},"U":{"x_min":95.28125,"x_max":963.671875,"ha":1081,"o":"m 963 991 l 862 991 l 862 383 b 529 69 862 123 698 69 b 196 383 360 69 196 123 l 196 991 l 95 991 l 95 383 b 529 -25 95 202 144 -25 b 963 383 914 -25 963 202 l 963 991 "},"◊":{"x_min":87,"x_max":803,"ha":908,"o":"m 803 483 l 480 1040 l 409 1040 l 87 483 l 408 -75 l 480 -75 l 803 483 m 719 480 l 476 56 b 447 -4 466 38 453 11 l 443 -4 b 415 56 439 9 428 30 l 168 484 l 410 906 b 440 969 423 929 434 950 l 445 969 b 474 906 450 954 464 926 l 719 480 "},"Ñ":{"x_min":89.828125,"x_max":993.609375,"ha":1106,"o":"m 89 0 l 190 0 l 190 847 l 193 847 l 876 0 l 993 0 l 993 991 l 892 991 l 892 144 l 890 144 l 210 991 l 89 991 l 89 0 m 733 1218 b 660 1145 729 1188 720 1145 b 552 1181 623 1145 589 1163 b 430 1218 517 1200 477 1218 b 326 1165 379 1218 347 1195 b 289 1068 306 1134 296 1097 l 349 1068 b 423 1140 353 1097 363 1140 b 530 1104 460 1140 494 1122 b 653 1068 566 1086 605 1068 b 756 1120 705 1068 736 1091 b 793 1218 778 1151 788 1188 l 733 1218 "},"F":{"x_min":89.828125,"x_max":818.03125,"ha":849,"o":"m 89 0 l 190 0 l 190 466 l 786 466 l 786 561 l 190 561 l 190 897 l 818 897 l 818 991 l 89 991 l 89 0 "},"­":{"x_min":95.28125,"x_max":509.0625,"ha":617,"o":"m 95 329 l 509 329 l 509 431 l 95 431 l 95 329 "},":":{"x_min":130.671875,"x_max":247.71875,"ha":386,"o":"m 130 0 l 247 0 l 247 152 l 130 152 l 130 0 m 130 550 l 247 550 l 247 702 l 130 702 l 130 550 "},"Û":{"x_min":95.28125,"x_max":963.671875,"ha":1081,"o":"m 963 991 l 862 991 l 862 382 b 529 68 862 123 698 68 b 196 382 360 68 196 123 l 196 991 l 95 991 l 95 382 b 529 -25 95 202 144 -25 b 963 382 914 -25 963 202 l 963 991 m 280 1043 l 382 1043 l 529 1184 l 676 1043 l 778 1043 l 583 1241 l 475 1241 l 280 1043 "},"*":{"x_min":51.71875,"x_max":528.109375,"ha":592,"o":"m 251 805 l 78 872 l 51 804 l 231 735 l 106 592 l 157 542 l 289 693 l 421 542 l 473 592 l 348 735 l 528 804 l 500 872 l 328 805 l 328 992 l 251 992 l 251 805 "},"†":{"x_min":76.21875,"x_max":833,"ha":928,"o":"m 404 -216 l 504 -216 l 504 590 l 833 590 l 833 676 l 504 676 l 504 991 l 404 991 l 404 676 l 76 676 l 76 590 l 404 590 l 404 -216 "},"∕":{"x_min":-218,"x_max":445,"ha":232,"o":"m -218 -22 l -133 -22 l 445 983 l 360 983 l -218 -22 "},"°":{"x_min":77.578125,"x_max":466.859375,"ha":556,"o":"m 77 784 b 272 586 77 675 164 586 b 466 784 379 586 466 675 b 272 983 466 894 379 983 b 77 784 164 983 77 894 m 137 784 b 272 922 137 861 197 922 b 406 784 347 922 406 861 b 272 647 406 708 347 647 b 137 784 197 647 137 708 "},"V":{"x_min":-20,"x_max":953,"ha":951,"o":"m 472 117 l 97 992 l -20 992 l 414 0 l 522 0 l 953 992 l 844 992 l 472 117 "},"å":{"x_min":40.828125,"x_max":842.53125,"ha":849,"o":"m 641 279 b 345 55 641 130 481 55 b 141 201 236 55 141 88 b 326 334 141 287 209 323 b 641 388 528 354 596 359 l 641 279 m 164 500 b 406 658 171 615 247 658 b 641 516 573 658 641 620 b 393 420 641 445 613 433 b 40 194 238 412 40 390 b 315 -22 40 31 194 -22 b 646 122 547 -22 615 75 l 649 122 b 758 -5 650 65 656 -5 b 842 5 790 -5 822 1 l 842 75 b 789 72 824 73 807 72 b 733 152 749 72 733 93 l 733 530 b 409 744 733 669 646 744 b 72 500 167 744 87 651 l 164 500 m 266 956 b 416 804 266 873 333 804 b 566 956 496 804 566 872 b 416 1109 566 1041 496 1109 b 266 956 333 1109 266 1040 m 318 956 b 416 1056 318 1012 362 1056 b 514 956 470 1056 514 1012 b 416 856 514 901 470 856 b 318 956 362 856 318 901 "}," ":{"x_min":0,"x_max":0,"ha":386},"0":{"x_min":57.171875,"x_max":852.0625,"ha":928,"o":"m 454 897 b 751 479 677 897 751 725 b 454 63 751 236 677 63 b 157 479 231 63 157 236 b 454 897 157 725 231 897 m 454 983 b 57 479 220 983 57 830 b 454 -22 57 130 220 -22 b 852 479 688 -22 852 130 b 454 983 852 830 688 983 "},"”":{"x_min":84.390625,"x_max":457.328125,"ha":565,"o":"m 340 838 l 389 838 b 328 697 389 769 382 722 l 328 644 b 457 836 402 665 457 720 l 457 991 l 340 991 l 340 838 m 96 838 l 145 838 b 84 697 145 769 138 722 l 84 644 b 213 836 159 665 213 720 l 213 991 l 96 991 l 96 838 "},"¾":{"x_min":49.0625,"x_max":1295.828125,"ha":1389,"o":"m 1110 198 l 863 198 l 1108 483 l 1110 483 l 1110 198 m 1110 0 l 1186 0 l 1186 137 l 1295 137 l 1295 198 l 1186 198 l 1186 586 l 1118 586 l 786 198 l 786 137 l 1110 137 l 1110 0 m 378 -22 l 462 -22 l 1041 983 l 956 983 l 378 -22 m 253 672 b 465 555 359 669 465 661 b 315 441 465 505 424 441 b 125 581 228 441 125 459 l 49 581 b 311 380 49 438 142 380 b 541 558 424 380 541 426 b 402 702 541 645 479 698 l 402 705 b 517 823 477 713 517 770 b 303 983 517 940 409 983 b 64 788 138 983 66 894 l 140 788 b 303 922 140 863 187 922 b 441 823 379 922 441 887 b 296 730 441 751 385 730 b 253 733 279 730 264 730 l 253 672 "},"@":{"x_min":59.890625,"x_max":1029.015625,"ha":1111,"o":"m 337 398 b 581 734 337 533 438 734 b 692 597 660 734 692 688 b 450 254 692 469 590 254 b 337 398 371 254 337 312 m 736 686 b 586 804 705 772 649 804 b 253 391 386 804 253 586 b 439 184 253 277 323 184 b 623 280 526 184 588 240 l 626 280 b 715 184 626 213 666 184 b 1029 583 858 184 1029 366 b 570 1016 1029 834 824 1016 b 59 495 288 1016 59 784 b 570 -25 59 211 279 -25 b 1008 231 748 -25 921 73 l 932 231 b 570 36 860 112 711 36 b 127 495 325 36 127 243 b 570 955 127 740 315 955 b 960 587 773 955 960 811 b 729 245 960 441 843 245 b 694 281 706 245 694 259 b 710 365 694 304 700 334 l 845 779 l 769 779 l 736 686 "},"ö":{"x_min":53.078125,"x_max":856.140625,"ha":928,"o":"m 153 361 b 454 658 153 534 264 658 b 755 361 645 658 755 534 b 454 63 755 187 645 63 b 153 361 264 63 153 187 m 53 361 b 454 -22 53 159 182 -22 b 856 361 726 -22 856 159 b 454 744 856 562 726 744 b 53 361 182 744 53 562 m 250 838 l 351 838 l 351 991 l 250 991 l 250 838 m 558 838 l 658 838 l 658 991 l 558 991 l 558 838 "},"i":{"x_min":74.859375,"x_max":175.578125,"ha":256,"o":"m 74 0 l 175 0 l 175 722 l 74 722 l 74 0 m 74 847 l 175 847 l 175 1000 l 74 1000 l 74 847 "},"≤":{"x_min":80.3125,"x_max":820.75,"ha":922,"o":"m 818 111 l 818 183 l 160 487 l 160 490 l 816 791 l 816 863 l 91 519 l 91 455 l 818 111 m 820 -11 l 820 48 l 80 48 l 80 -11 l 820 -11 "},"Õ":{"x_min":51.71875,"x_max":1107.953125,"ha":1183,"o":"m 51 495 b 579 -25 51 145 303 -25 b 1107 495 856 -25 1107 145 b 579 1016 1107 845 856 1016 b 51 495 303 1016 51 845 m 160 495 b 579 922 160 794 366 922 b 999 495 793 922 999 794 b 579 69 999 197 793 69 b 160 495 366 69 160 197 m 771 1218 b 698 1145 767 1188 758 1145 b 590 1181 661 1145 627 1163 b 468 1218 555 1200 515 1218 b 364 1165 417 1218 385 1195 b 328 1068 344 1134 334 1097 l 387 1068 b 461 1140 392 1097 401 1140 b 568 1104 498 1140 532 1122 b 691 1068 604 1086 643 1068 b 794 1120 743 1068 774 1091 b 831 1218 816 1151 826 1188 l 771 1218 "},"þ":{"x_min":77.578125,"x_max":854.78125,"ha":926,"o":"m 77 -280 l 178 -280 l 178 144 l 181 144 b 469 -22 227 52 336 -22 b 854 361 733 -22 854 159 b 469 744 854 537 759 744 b 181 577 276 744 212 638 l 178 577 l 178 1000 l 77 1000 l 77 -280 m 172 361 b 469 658 172 550 302 658 b 754 361 675 658 754 505 b 469 63 754 177 628 63 b 172 361 264 63 172 212 "},"]":{"x_min":65.328125,"x_max":332.109375,"ha":489,"o":"m 332 991 l 65 991 l 65 913 l 239 913 l 239 -186 l 65 -186 l 65 -263 l 332 -263 l 332 991 "},"m":{"x_min":77.578125,"x_max":1283.53125,"ha":1389,"o":"m 1182 0 l 1283 0 l 1283 493 b 992 744 1283 641 1190 744 b 714 586 850 744 748 658 b 461 744 694 658 620 744 b 181 588 299 744 223 665 l 178 588 l 178 722 l 77 722 l 77 0 l 178 0 l 178 406 b 428 658 178 573 284 658 b 630 488 566 658 630 580 l 630 0 l 730 0 l 730 426 b 971 658 730 566 816 658 b 1182 458 1117 658 1182 590 l 1182 0 "},"8":{"x_min":65.328125,"x_max":843.890625,"ha":928,"o":"m 166 268 b 454 480 166 415 295 480 b 743 268 613 480 743 415 b 454 63 743 125 619 63 b 166 268 289 63 166 125 m 65 268 b 454 -22 65 134 149 -22 b 843 268 759 -22 843 134 b 616 525 843 456 691 506 l 616 527 b 797 731 666 541 797 581 b 454 983 797 837 732 983 b 111 731 176 983 111 837 b 292 527 111 581 242 541 l 292 525 b 65 268 217 506 65 456 m 454 566 b 212 726 289 566 212 634 b 454 897 212 862 337 897 b 696 726 571 897 696 862 b 454 566 696 634 619 566 "},"ž":{"x_min":26.953125,"x_max":729.046875,"ha":772,"o":"m 26 0 l 729 0 l 729 86 l 160 86 l 708 636 l 708 722 l 58 722 l 58 636 l 564 636 l 26 86 l 26 0 m 626 1028 l 524 1028 l 378 887 l 231 1028 l 129 1028 l 323 830 l 432 830 l 626 1028 "},"R":{"x_min":106.171875,"x_max":967.75,"ha":1029,"o":"m 106 0 l 206 0 l 206 436 l 597 436 b 833 202 764 436 830 377 b 858 0 834 94 841 20 l 967 0 b 933 205 944 22 936 143 b 760 480 926 368 898 458 l 760 483 b 951 723 887 512 951 618 b 635 991 951 931 800 991 l 106 991 l 106 0 m 206 897 l 642 897 b 842 723 735 897 842 869 b 632 530 842 572 743 530 l 206 530 l 206 897 "},"á":{"x_min":40.828125,"x_max":842.53125,"ha":849,"o":"m 641 279 b 345 55 641 130 481 55 b 141 201 236 55 141 88 b 326 334 141 287 209 323 b 641 388 528 354 596 359 l 641 279 m 164 500 b 406 658 171 615 247 658 b 641 516 573 658 641 620 b 393 420 641 445 613 433 b 40 194 238 412 40 390 b 315 -22 40 31 194 -22 b 646 122 547 -22 615 75 l 649 122 b 758 -5 650 65 656 -5 b 842 5 790 -5 822 1 l 842 75 b 789 72 824 73 807 72 b 733 152 749 72 733 93 l 733 530 b 409 744 733 669 646 744 b 72 500 167 744 87 651 l 164 500 m 329 830 l 412 830 l 609 1027 l 485 1027 l 329 830 "},"×":{"x_min":101,"x_max":716,"ha":833,"o":"m 407 400 l 149 666 l 101 615 l 359 352 l 101 88 l 149 38 l 407 303 l 667 38 l 716 88 l 456 352 l 716 615 l 667 666 l 407 400 "},"o":{"x_min":53.078125,"x_max":856.140625,"ha":928,"o":"m 153 361 b 454 658 153 534 264 658 b 755 361 645 658 755 534 b 454 63 755 187 645 63 b 153 361 264 63 153 187 m 53 361 b 454 -22 53 159 182 -22 b 856 361 726 -22 856 159 b 454 744 856 562 726 744 b 53 361 182 744 53 562 "},"5":{"x_min":66.6875,"x_max":820.75,"ha":928,"o":"m 98 452 l 191 448 b 436 562 223 488 295 562 b 720 313 617 562 720 470 b 443 63 720 141 598 63 b 167 276 276 63 190 136 l 66 276 b 443 -22 88 93 206 -22 b 820 313 741 -22 820 173 b 451 648 820 513 688 648 b 205 554 336 648 250 598 l 202 556 l 269 875 l 760 875 l 760 961 l 193 961 l 98 452 "},"õ":{"x_min":53.078125,"x_max":856.140625,"ha":928,"o":"m 153 361 b 454 658 153 534 264 658 b 755 361 645 658 755 534 b 454 63 755 187 645 63 b 153 361 264 63 153 187 m 53 361 b 454 -22 53 159 182 -22 b 856 361 726 -22 856 159 b 454 744 856 562 726 744 b 53 361 182 744 53 562 m 646 1004 b 573 931 642 975 632 931 b 465 968 536 931 502 950 b 343 1004 430 986 390 1004 b 239 951 292 1004 259 981 b 202 854 219 920 209 883 l 262 854 b 336 926 266 883 276 926 b 443 890 372 926 406 908 b 566 854 479 872 518 854 b 669 906 617 854 649 877 b 706 1004 691 937 700 975 l 646 1004 "},"7":{"x_min":37.109375,"x_max":751.953125,"ha":824,"o":"m 751 961 l 37 961 l 37 866 l 655 866 b 211 0 480 704 249 320 l 320 0 b 751 866 381 433 640 765 l 751 961 "},"K":{"x_min":106.171875,"x_max":1012.671875,"ha":1029,"o":"m 106 0 l 206 0 l 206 334 l 419 512 l 869 0 l 1012 0 l 498 581 l 980 991 l 834 991 l 206 455 l 206 991 l 106 991 l 106 0 "},",":{"x_min":118.421875,"x_max":247.71875,"ha":386,"o":"m 130 0 l 179 0 b 118 -141 179 -69 172 -116 l 118 -194 b 247 -2 193 -173 247 -118 l 247 152 l 130 152 l 130 0 "},"d":{"x_min":53.078125,"x_max":830.28125,"ha":926,"o":"m 735 361 b 438 63 735 172 605 63 b 153 361 232 63 153 216 b 438 658 153 544 279 658 b 735 361 643 658 735 509 m 729 0 l 830 0 l 830 1000 l 729 1000 l 729 577 l 726 577 b 438 744 680 669 573 744 b 53 361 174 744 53 562 b 438 -22 53 184 148 -22 b 726 144 609 -22 699 83 l 729 144 l 729 0 "},"¨":{"x_min":-78.9375,"x_max":329.390625,"ha":256,"o":"m -78 838 l 21 838 l 21 991 l -78 991 l -78 838 m 228 838 l 329 838 l 329 991 l 228 991 l 228 838 "},"Ô":{"x_min":51.71875,"x_max":1107.953125,"ha":1183,"o":"m 51 495 b 579 -25 51 145 303 -25 b 1107 495 856 -25 1107 145 b 579 1016 1107 845 856 1016 b 51 495 303 1016 51 845 m 160 495 b 579 921 160 793 366 921 b 999 495 793 921 999 793 b 579 68 999 196 793 68 b 160 495 366 68 160 196 m 330 1043 l 432 1043 l 579 1184 l 726 1043 l 828 1043 l 634 1241 l 525 1241 l 330 1043 "},"E":{"x_min":106.171875,"x_max":890.171875,"ha":951,"o":"m 106 0 l 890 0 l 890 94 l 206 94 l 206 466 l 854 466 l 854 561 l 206 561 l 206 897 l 879 897 l 879 991 l 106 991 l 106 0 "},"Y":{"x_min":-20.421875,"x_max":954.140625,"ha":953,"o":"m 416 0 l 517 0 l 517 416 l 954 991 l 823 991 l 466 519 l 110 991 l -20 991 l 416 416 l 416 0 "},"\"":{"x_min":137.46875,"x_max":416.5,"ha":565,"o":"m 137 644 l 213 644 l 213 991 l 137 991 l 137 644 m 340 644 l 416 644 l 416 991 l 340 991 l 340 644 "},"‹":{"x_min":99.109375,"x_max":312.8125,"ha":438,"o":"m 99 330 l 312 143 l 312 250 l 159 380 l 312 511 l 312 618 l 99 430 l 99 330 "},"˙":{"x_min":74.859375,"x_max":175.578125,"ha":256,"o":"m 74 838 l 175 838 l 175 991 l 74 991 l 74 838 "},"ê":{"x_min":53.28125,"x_max":837.28125,"ha":900,"o":"m 154 414 b 445 658 177 590 315 658 b 736 414 580 658 707 591 l 154 414 m 718 230 b 438 64 683 121 607 64 b 154 336 258 64 154 186 l 837 336 b 438 744 837 664 620 744 b 53 361 174 744 53 562 b 438 -21 53 185 148 -21 b 819 230 672 -21 778 103 l 718 230 m 192 830 l 294 830 l 441 971 l 588 830 l 690 830 l 495 1028 l 386 1028 l 192 830 "},"Ï":{"x_min":-53.078125,"x_max":355.25,"ha":308,"o":"m 100 0 l 201 0 l 201 991 l 100 991 l 100 0 m -53 1052 l 47 1052 l 47 1205 l -53 1205 l -53 1052 m 254 1052 l 355 1052 l 355 1205 l 254 1205 l 254 1052 "},"„":{"x_min":84.390625,"x_max":457.328125,"ha":565,"o":"m 96 0 l 145 0 b 84 -141 145 -69 138 -116 l 84 -194 b 213 -2 159 -173 213 -118 l 213 152 l 96 152 l 96 0 m 340 0 l 389 0 b 328 -141 389 -69 382 -116 l 328 -194 b 457 -2 402 -173 457 -118 l 457 152 l 340 152 l 340 0 "},"Â":{"x_min":-8,"x_max":991,"ha":1003,"o":"m 703 395 l 273 395 l 490 888 l 703 395 m 873 0 l 991 0 l 550 991 l 432 991 l -8 0 l 100 0 l 232 300 l 744 300 l 873 0 m 242 1043 l 344 1043 l 491 1184 l 638 1043 l 740 1043 l 545 1241 l 437 1241 l 242 1043 "},"Í":{"x_min":63.96875,"x_max":344.359375,"ha":308,"o":"m 100 0 l 201 0 l 201 991 l 100 991 l 100 0 m 63 1044 l 147 1044 l 344 1241 l 220 1241 l 63 1044 "},"´":{"x_min":38,"x_max":318,"ha":256,"o":"m 38 830 l 120 830 l 318 1027 l 194 1027 l 38 830 "},"ì":{"x_min":-68.0625,"x_max":212.328125,"ha":256,"o":"m 74 0 l 175 0 l 175 722 l 74 722 l 74 0 m 55 1027 l -68 1027 l 129 830 l 212 830 l 55 1027 "},"±":{"x_min":63.96875,"x_max":752.703125,"ha":833,"o":"m 374 450 l 63 450 l 63 380 l 374 380 l 374 127 l 442 127 l 442 380 l 752 380 l 752 450 l 442 450 l 442 702 l 374 702 l 374 450 m 63 0 l 752 0 l 752 69 l 63 69 l 63 0 "},"Ú":{"x_min":95.28125,"x_max":963.671875,"ha":1081,"o":"m 963 991 l 862 991 l 862 383 b 529 69 862 123 698 69 b 196 383 360 69 196 123 l 196 991 l 95 991 l 95 383 b 529 -25 95 202 144 -25 b 963 383 914 -25 963 202 l 963 991 m 442 1044 l 525 1044 l 722 1241 l 598 1241 l 442 1044 "},"|":{"x_min":117.0625,"x_max":185.109375,"ha":308,"o":"m 117 -25 l 185 -25 l 185 1016 l 117 1016 l 117 -25 "},"§":{"x_min":67.5625,"x_max":841.078125,"ha":926,"o":"m 132 23 b 468 -241 142 -118 215 -241 b 760 -16 672 -241 760 -129 b 679 137 760 79 706 118 b 841 333 737 159 841 198 b 638 561 841 458 758 509 l 460 637 b 249 811 346 686 249 727 b 435 930 249 888 319 930 b 647 765 618 930 646 822 l 748 765 b 435 1016 748 945 609 1016 b 149 794 221 1016 149 908 b 229 654 149 711 209 668 b 67 448 210 648 67 612 b 279 230 67 338 151 286 l 453 154 b 660 -27 578 100 660 55 b 468 -155 660 -115 567 -155 b 233 23 349 -155 240 -111 l 132 23 m 160 473 b 290 612 160 562 260 608 b 748 318 592 476 748 441 b 617 179 748 216 645 179 b 160 473 291 345 160 345 "},"Ý":{"x_min":-20.421875,"x_max":954.140625,"ha":953,"o":"m 416 0 l 517 0 l 517 416 l 954 991 l 823 991 l 466 519 l 110 991 l -20 991 l 416 416 l 416 0 m 379 1044 l 462 1044 l 660 1241 l 536 1241 l 379 1044 "},"b":{"x_min":77.578125,"x_max":854.78125,"ha":926,"o":"m 77 0 l 178 0 l 178 144 l 181 144 b 469 -22 208 83 298 -22 b 854 361 759 -22 854 184 b 469 744 854 562 733 744 b 181 577 334 744 227 669 l 178 577 l 178 1000 l 77 1000 l 77 0 m 172 361 b 469 658 172 509 264 658 b 754 361 628 658 754 544 b 469 63 754 216 675 63 b 172 361 302 63 172 172 "},"q":{"x_min":53.078125,"x_max":830.28125,"ha":926,"o":"m 729 577 l 726 577 b 430 744 702 644 604 744 b 53 361 167 744 53 537 b 438 -22 53 159 174 -22 b 726 144 571 -22 680 52 l 729 144 l 729 -280 l 830 -280 l 830 722 l 729 722 l 729 577 m 735 361 b 438 63 735 212 643 63 b 153 361 279 63 153 177 b 438 658 153 505 232 658 b 735 361 605 658 735 550 "},"Ω":{"x_min":85.75,"x_max":1106.578125,"ha":1218,"o":"m 337 70 l 85 70 l 85 0 l 468 0 l 468 52 b 200 498 333 119 200 279 b 601 913 200 720 357 913 b 993 502 854 913 993 691 b 725 52 993 268 858 119 l 725 0 l 1106 0 l 1106 70 l 852 70 l 852 75 b 1084 513 967 147 1084 301 b 600 984 1084 756 890 984 b 108 509 326 984 108 784 b 337 75 108 305 217 158 l 337 70 "},"Ö":{"x_min":51.71875,"x_max":1107.953125,"ha":1183,"o":"m 51 495 b 579 -25 51 145 303 -25 b 1107 495 856 -25 1107 145 b 579 1016 1107 845 856 1016 b 51 495 303 1016 51 845 m 160 495 b 579 922 160 794 366 922 b 999 495 793 922 999 794 b 579 69 999 197 793 69 b 160 495 366 69 160 197 m 375 1052 l 476 1052 l 476 1205 l 375 1205 l 375 1052 m 683 1052 l 784 1052 l 784 1205 l 683 1205 l 683 1052 "},"ﬂ":{"x_min":-8.171875,"x_max":605.703125,"ha":694,"o":"m 504 0 l 605 0 l 605 1000 l 504 1000 l 504 0 m 145 0 l 246 0 l 246 644 l 446 644 l 446 722 l 246 722 l 246 806 b 363 913 246 890 273 913 b 457 908 394 913 426 911 l 457 994 b 344 1000 426 997 382 1000 b 145 818 212 1000 145 954 l 145 722 l -8 722 l -8 644 l 145 644 l 145 0 "},"z":{"x_min":26.9375,"x_max":729.265625,"ha":772,"o":"m 26 0 l 729 0 l 729 86 l 160 86 l 708 636 l 708 722 l 58 722 l 58 636 l 564 636 l 26 86 l 26 0 "},"™":{"x_min":57.171875,"x_max":1181.453125,"ha":1375,"o":"m 240 419 l 308 419 l 308 930 l 492 930 l 492 991 l 57 991 l 57 930 l 240 930 l 240 419 m 890 527 l 710 991 l 593 991 l 593 419 l 661 419 l 661 930 l 664 930 l 867 419 l 907 419 l 1110 930 l 1113 930 l 1113 419 l 1181 419 l 1181 991 l 1064 991 l 890 527 "},"ã":{"x_min":40.828125,"x_max":842.53125,"ha":849,"o":"m 641 279 b 345 55 641 130 481 55 b 141 201 236 55 141 88 b 326 334 141 287 209 323 b 641 388 528 354 596 359 l 641 279 m 164 500 b 406 658 171 615 247 658 b 641 516 573 658 641 620 b 393 420 641 445 613 433 b 40 194 238 412 40 390 b 315 -22 40 31 194 -22 b 646 122 547 -22 615 75 l 649 122 b 758 -5 650 65 656 -5 b 842 5 790 -5 822 1 l 842 75 b 789 72 824 73 807 72 b 733 152 749 72 733 93 l 733 530 b 409 744 733 669 646 744 b 72 500 167 744 87 651 l 164 500 m 608 1004 b 534 931 604 975 594 931 b 427 968 498 931 464 950 b 304 1004 392 986 352 1004 b 201 951 254 1004 221 981 b 164 854 181 920 171 883 l 224 854 b 298 926 228 883 238 926 b 405 890 334 926 368 908 b 528 854 441 872 480 854 b 631 906 579 854 611 877 b 668 1004 653 937 662 975 l 608 1004 "},"æ":{"x_min":49.078125,"x_max":1412.953125,"ha":1492,"o":"m 1412 336 b 1014 744 1412 663 1196 744 b 727 591 898 744 791 697 b 418 744 688 691 623 744 b 80 500 175 744 95 651 l 172 500 b 415 658 179 615 256 658 b 649 516 581 658 649 620 b 401 420 649 445 622 433 b 49 194 246 412 49 390 b 324 -22 49 31 202 -22 b 690 172 566 -22 658 94 b 1021 -22 721 77 830 -22 b 1393 230 1248 -22 1354 102 l 1293 230 b 1021 63 1259 120 1182 63 b 742 336 846 63 743 175 l 1412 336 m 742 413 b 1021 658 756 561 852 658 b 1312 413 1155 658 1283 591 l 742 413 m 649 279 b 354 55 649 130 490 55 b 149 201 245 55 149 88 b 334 334 149 287 217 323 b 649 388 536 354 604 359 l 649 279 "},"®":{"x_min":34.03125,"x_max":1054.859375,"ha":1111,"o":"m 34 495 b 544 -25 34 208 262 -25 b 1054 495 826 -25 1054 208 b 544 1016 1054 783 826 1016 b 34 495 262 1016 34 783 m 102 495 b 544 955 102 750 295 955 b 986 497 794 955 986 750 b 544 36 986 240 794 36 b 102 495 295 36 102 240 m 729 186 l 813 186 l 631 461 b 784 633 713 475 784 525 b 586 805 784 744 724 805 l 353 805 l 353 186 l 421 186 l 421 461 l 551 461 l 729 186 m 421 744 l 573 744 b 715 634 646 744 715 722 b 573 522 715 544 653 522 l 421 522 l 421 744 "},"É":{"x_min":106.171875,"x_max":890.171875,"ha":951,"o":"m 106 0 l 890 0 l 890 94 l 206 94 l 206 466 l 854 466 l 854 561 l 206 561 l 206 897 l 879 897 l 879 991 l 106 991 l 106 0 m 379 1044 l 462 1044 l 660 1241 l 536 1241 l 379 1044 "},"~":{"x_min":94,"x_max":722.828125,"ha":833,"o":"m 673 438 b 554 338 642 390 608 338 b 415 388 517 338 465 366 b 264 433 363 412 310 433 b 94 313 172 433 123 372 l 143 263 b 257 363 164 312 197 363 b 413 315 319 363 370 340 b 552 269 458 290 502 269 b 722 388 637 269 682 330 l 673 438 "},"³":{"x_min":49,"x_max":541.71875,"ha":603,"o":"m 253 672 b 465 555 359 669 465 661 b 315 441 465 505 424 441 b 125 581 228 441 125 459 l 49 581 b 311 380 49 438 142 380 b 541 558 424 380 541 426 b 402 702 541 645 479 698 l 402 705 b 517 823 477 713 517 770 b 303 983 517 940 409 983 b 63 788 138 983 66 894 l 140 788 b 303 922 140 863 187 922 b 441 823 379 922 441 887 b 296 730 441 751 385 730 b 253 733 279 730 264 730 l 253 672 "},"¡":{"x_min":142.921875,"x_max":259.96875,"ha":411,"o":"m 142 591 l 259 591 l 259 744 l 142 744 l 142 591 m 147 -247 l 255 -247 l 255 15 l 231 487 l 171 487 l 147 15 l 147 -247 "},"[":{"x_min":147,"x_max":413.78125,"ha":489,"o":"m 147 -263 l 413 -263 l 413 -186 l 239 -186 l 239 913 l 413 913 l 413 991 l 147 991 l 147 -263 "},"L":{"x_min":89.828125,"x_max":807.140625,"ha":824,"o":"m 89 0 l 807 0 l 807 94 l 190 94 l 190 991 l 89 991 l 89 0 "}," ":{"x_min":0,"x_max":0,"ha":386},"∑":{"x_min":32.984375,"x_max":851.015625,"ha":906,"o":"m 851 -133 l 851 -51 l 159 -51 l 159 -47 l 585 423 l 186 884 l 186 890 l 829 890 l 829 966 l 54 966 l 54 906 l 479 413 l 32 -77 l 32 -133 l 851 -133 "},"%":{"x_min":84.390625,"x_max":1226.359375,"ha":1338,"o":"m 988 47 b 834 247 891 47 834 122 b 988 447 834 372 891 447 b 1141 247 1084 447 1141 372 b 988 47 1141 122 1084 47 m 289 -22 l 370 -22 l 1018 983 l 937 983 l 289 -22 m 322 513 b 168 713 225 513 168 588 b 322 913 168 838 225 913 b 476 713 419 913 476 838 b 322 513 476 588 419 513 m 988 -22 b 1226 247 1124 -22 1226 69 b 988 516 1226 425 1124 516 b 749 247 852 516 749 425 b 988 -22 749 69 852 -22 m 322 444 b 560 713 458 444 560 536 b 322 983 560 891 458 983 b 84 713 186 983 84 891 b 322 444 84 536 186 444 "},"P":{"x_min":106.171875,"x_max":922.828125,"ha":978,"o":"m 206 897 l 616 897 b 813 705 732 897 813 854 b 596 511 813 590 764 511 l 206 511 l 206 897 m 106 0 l 206 0 l 206 416 l 585 416 b 922 705 801 416 922 518 b 630 991 922 915 779 991 l 106 991 l 106 0 "},"∏":{"x_min":38.109375,"x_max":1076.640625,"ha":1139,"o":"m 1076 888 l 1076 966 l 38 966 l 38 888 l 225 888 l 225 -133 l 313 -133 l 313 888 l 801 888 l 801 -133 l 890 -133 l 890 888 l 1076 888 "},"À":{"x_min":-8,"x_max":991,"ha":1003,"o":"m 703 395 l 273 395 l 490 888 l 703 395 m 873 0 l 991 0 l 550 991 l 432 991 l -8 0 l 100 0 l 232 301 l 744 301 l 873 0 m 422 1241 l 298 1241 l 495 1044 l 578 1044 l 422 1241 "},"_":{"x_min":0,"x_max":680.5625,"ha":694,"o":"m 0 -173 l 680 -173 l 680 -104 l 0 -104 l 0 -173 "},"ñ":{"x_min":78.28125,"x_max":780.609375,"ha":875,"o":"m 679 0 l 780 0 l 780 447 b 474 744 780 619 709 744 b 181 580 317 744 211 656 l 179 580 l 179 722 l 78 722 l 78 0 l 179 0 l 179 391 b 466 658 179 555 268 658 b 679 465 594 658 679 608 l 679 0 m 621 1004 b 547 931 617 975 607 931 b 440 968 511 931 477 950 b 317 1004 404 986 365 1004 b 214 951 267 1004 234 981 b 177 854 193 920 184 883 l 237 854 b 311 926 241 883 251 926 b 418 890 347 926 381 908 b 541 854 453 872 493 854 b 644 906 592 854 624 877 b 681 1004 666 937 675 975 l 621 1004 "},"+":{"x_min":63.96875,"x_max":752.703125,"ha":833,"o":"m 374 0 l 442 0 l 442 316 l 752 316 l 752 386 l 442 386 l 442 702 l 374 702 l 374 386 l 63 386 l 63 316 l 374 316 l 374 0 "},"‚":{"x_min":118.421875,"x_max":247.71875,"ha":386,"o":"m 130 0 l 179 0 b 118 -141 179 -69 172 -116 l 118 -194 b 247 -2 193 -173 247 -118 l 247 152 l 130 152 l 130 0 "},"½":{"x_min":17.859375,"x_max":1295.28125,"ha":1389,"o":"m 239 -22 l 324 -22 l 901 983 l 817 983 l 239 -22 m 198 397 l 275 397 l 275 983 l 215 983 b 61 875 194 887 153 875 l 17 875 l 17 822 l 198 822 l 198 397 m 1295 69 l 908 69 b 1145 220 923 105 961 130 b 1288 408 1224 259 1288 308 b 1066 586 1288 491 1234 586 b 829 380 922 586 829 525 l 906 380 b 1066 525 907 445 937 525 b 1212 408 1163 525 1212 483 b 1023 229 1212 331 1161 298 b 816 0 843 138 824 68 l 1295 0 l 1295 69 "},"Æ":{"x_min":-31.3125,"x_max":1445.5,"ha":1518,"o":"m 718 416 l 344 416 l 646 897 l 718 897 l 718 416 m -31 0 l 85 0 l 287 322 l 718 322 l 718 0 l 1445 0 l 1445 94 l 819 94 l 819 466 l 1408 466 l 1408 561 l 819 561 l 819 897 l 1438 897 l 1438 991 l 592 991 l -31 0 "},"Ë":{"x_min":106.171875,"x_max":890.171875,"ha":951,"o":"m 106 0 l 890 0 l 890 94 l 206 94 l 206 466 l 854 466 l 854 561 l 206 561 l 206 897 l 879 897 l 879 991 l 106 991 l 106 0 m 262 1052 l 363 1052 l 363 1205 l 262 1205 l 262 1052 m 570 1052 l 671 1052 l 671 1205 l 570 1205 l 570 1052 "},"'":{"x_min":151.078125,"x_max":227.3125,"ha":386,"o":"m 151 644 l 227 644 l 227 991 l 151 991 l 151 644 "},"Š":{"x_min":31.3125,"x_max":877.921875,"ha":928,"o":"m 849 707 b 443 1016 842 943 642 1016 b 59 728 255 1016 59 945 b 415 464 59 568 183 502 b 769 266 592 435 769 417 b 472 68 769 109 617 68 b 132 327 285 68 149 118 l 31 327 b 472 -25 46 60 225 -25 b 877 284 661 -25 877 41 b 524 546 877 474 700 516 b 168 746 287 586 168 617 b 443 921 168 859 287 921 b 748 707 600 921 735 877 l 849 707 m 703 1241 l 601 1241 l 454 1100 l 307 1241 l 205 1241 l 400 1043 l 509 1043 l 703 1241 "},"ª":{"x_min":26.9375,"x_max":546.890625,"ha":551,"o":"m 408 712 b 224 577 408 622 312 577 b 103 659 161 577 103 597 b 232 736 103 702 122 729 b 408 766 254 737 382 748 l 408 712 m 546 600 b 512 594 536 597 523 594 b 476 643 487 594 476 606 l 476 854 b 266 983 476 937 420 983 b 46 836 108 983 56 926 l 114 836 b 263 922 118 897 167 922 b 408 845 372 922 408 900 b 266 797 408 811 390 802 b 26 655 111 790 26 752 b 205 525 26 558 126 525 b 410 612 354 525 399 583 l 413 612 b 484 541 414 577 417 541 b 546 547 514 541 534 545 l 546 600 "},"Œ":{"x_min":51.71875,"x_max":1546.21875,"ha":1621,"o":"m 838 247 b 533 69 838 208 743 69 b 160 495 321 69 160 205 b 533 922 160 773 332 922 b 838 765 744 922 838 797 l 838 247 m 838 0 l 1546 0 l 1546 94 l 939 94 l 939 466 l 1508 466 l 1508 561 l 939 561 l 939 897 l 1539 897 l 1539 991 l 838 991 l 838 897 l 835 897 b 533 1016 769 981 661 1016 b 51 495 215 1016 51 761 b 533 -25 51 145 266 -25 b 838 108 666 -25 767 23 l 838 0 "},"˛":{"x_min":6.8125,"x_max":289.921875,"ha":256,"o":"m 273 -200 b 161 -219 240 -209 209 -219 b 91 -155 123 -219 91 -201 b 224 0 91 -91 156 -33 l 151 0 b 6 -163 103 -18 6 -76 b 151 -272 6 -230 47 -272 b 289 -248 202 -272 258 -259 l 273 -200 "},"ð":{"x_min":53.078125,"x_max":856.140625,"ha":928,"o":"m 755 361 b 454 63 755 187 645 63 b 153 361 264 63 153 187 b 454 658 153 534 264 658 b 755 361 645 658 755 534 m 53 361 b 454 -22 53 159 182 -22 b 856 373 793 -22 856 248 b 532 934 856 541 754 805 l 686 1006 l 645 1044 l 481 968 b 298 1047 417 1005 368 1026 l 228 991 b 387 924 294 970 344 949 l 234 852 l 277 816 l 445 895 b 709 623 579 827 661 711 l 705 623 b 454 744 639 712 543 744 b 53 361 182 744 53 562 "},"T":{"x_min":-2.71875,"x_max":860.21875,"ha":875,"o":"m 378 0 l 479 0 l 479 897 l 860 897 l 860 991 l -2 991 l -2 897 l 378 897 l 378 0 "},"š":{"x_min":31.703125,"x_max":725.25,"ha":772,"o":"m 696 508 b 360 744 684 660 590 744 b 56 530 155 744 56 655 b 353 328 56 403 133 350 b 624 201 574 305 624 273 b 389 64 624 93 529 64 b 124 226 208 64 141 105 l 31 226 b 389 -21 31 53 164 -21 b 725 207 611 -21 725 64 b 419 415 725 347 635 386 b 156 535 204 444 156 460 b 360 658 156 635 254 658 b 604 508 507 658 578 625 l 696 508 m 627 1028 l 525 1028 l 378 887 l 231 1028 l 129 1028 l 324 830 l 432 830 l 627 1028 "},"℮":{"x_min":45.921875,"x_max":1140.25,"ha":1213,"o":"m 1140 466 l 1140 479 b 591 983 1140 758 895 983 b 45 479 290 983 45 758 b 591 -20 45 202 290 -20 b 1024 173 768 -20 927 55 l 946 173 b 593 6 859 72 734 6 b 258 155 462 6 344 65 b 247 187 251 163 247 175 l 247 461 b 254 466 247 465 250 466 l 1140 466 m 938 502 b 933 493 938 498 937 493 l 254 493 b 247 502 250 493 247 498 l 247 770 b 259 805 247 784 251 797 b 593 952 345 894 463 952 b 926 809 723 952 839 895 b 938 777 934 801 938 788 l 938 502 "},"Þ":{"x_min":106.171875,"x_max":922.828125,"ha":978,"o":"m 206 716 l 616 716 b 813 525 732 716 813 673 b 596 330 813 409 764 330 l 206 330 l 206 716 m 106 0 l 206 0 l 206 236 l 585 236 b 922 525 801 236 922 337 b 630 811 922 734 779 811 l 206 811 l 206 991 l 106 991 l 106 0 "},"j":{"x_min":-103.4375,"x_max":175.578125,"ha":256,"o":"m -103 -301 b -8 -305 -72 -302 -38 -305 b 175 -109 132 -305 175 -222 l 175 722 l 74 722 l 74 -109 b -35 -219 74 -183 55 -219 b -103 -215 -63 -219 -81 -218 l -103 -301 m 74 847 l 175 847 l 175 1000 l 74 1000 l 74 847 "},"1":{"x_min":27.21875,"x_max":421.9375,"ha":617,"o":"m 321 0 l 421 0 l 421 983 l 337 983 b 93 800 308 820 251 800 l 27 800 l 27 722 l 321 722 l 321 0 "},"›":{"x_min":116.1875,"x_max":329.890625,"ha":438,"o":"m 270 380 l 116 250 l 116 143 l 329 330 l 329 430 l 116 618 l 116 511 l 270 380 "},"ı":{"x_min":74.859375,"x_max":175.578125,"ha":256,"o":"m 74 0 l 175 0 l 175 722 l 74 722 l 74 0 "},"ℓ":{"x_min":47.640625,"x_max":722.75,"ha":778,"o":"m 675 211 b 446 55 637 140 553 55 b 257 276 353 55 258 122 l 257 308 b 597 836 461 486 597 654 b 404 1063 597 954 537 1063 b 171 727 296 1063 171 988 l 171 337 b 47 240 134 304 91 275 l 78 186 b 172 258 110 209 144 237 l 172 241 b 428 -15 181 112 258 -15 b 722 172 551 -15 651 47 l 675 211 m 257 744 b 401 998 257 937 340 998 b 528 829 495 998 528 923 b 257 394 528 680 406 540 l 257 744 "},"ä":{"x_min":40.828125,"x_max":842.53125,"ha":849,"o":"m 641 279 b 345 55 641 130 481 55 b 141 201 236 55 141 88 b 326 334 141 287 209 323 b 641 388 528 354 596 359 l 641 279 m 164 500 b 406 658 171 615 247 658 b 641 516 573 658 641 620 b 393 420 641 445 613 433 b 40 194 238 412 40 390 b 315 -22 40 31 194 -22 b 646 122 547 -22 615 75 l 649 122 b 758 -5 650 65 656 -5 b 842 5 790 -5 822 1 l 842 75 b 789 72 824 73 807 72 b 733 152 749 72 733 93 l 733 530 b 409 744 733 669 646 744 b 72 500 167 744 87 651 l 164 500 m 212 838 l 313 838 l 313 991 l 212 991 l 212 838 m 519 838 l 620 838 l 620 991 l 519 991 l 519 838 "},"<":{"x_min":63.609375,"x_max":752.328125,"ha":833,"o":"m 63 312 l 752 -11 l 752 66 l 148 351 l 752 636 l 752 714 l 63 390 l 63 312 "},"£":{"x_min":63.015625,"x_max":846.890625,"ha":928,"o":"m 72 444 l 195 444 b 230 320 212 400 230 355 b 63 59 230 216 140 113 l 110 -19 b 299 39 159 9 222 39 b 450 8 340 39 395 23 b 612 -22 506 -6 565 -22 b 846 76 713 -22 816 40 l 812 162 b 612 72 731 98 667 72 b 482 98 580 72 532 86 b 339 125 431 111 380 125 b 185 86 302 125 256 115 l 182 88 b 322 315 254 138 322 243 b 295 444 322 358 313 405 l 571 444 l 571 505 l 271 505 b 205 691 258 537 205 613 b 463 897 205 825 335 897 b 735 663 588 897 735 840 l 836 663 b 471 983 836 858 713 983 b 105 686 239 983 105 855 b 170 505 105 622 135 568 l 72 505 l 72 444 "},"¹":{"x_min":17.6875,"x_max":274.9375,"ha":401,"o":"m 198 397 l 274 397 l 274 983 l 215 983 b 61 875 194 887 153 875 l 17 875 l 17 822 l 198 822 l 198 397 "},"t":{"x_min":-8.171875,"x_max":446.4375,"ha":489,"o":"m 145 722 l -8 722 l -8 644 l 145 644 l 145 168 b 336 -11 145 51 179 -11 b 446 -2 368 -11 408 -8 l 446 83 b 347 75 427 79 396 75 b 246 166 265 75 246 104 l 246 644 l 446 644 l 446 722 l 246 722 l 246 950 l 145 950 l 145 722 "},"¬":{"x_min":63.96875,"x_max":752.703125,"ha":833,"o":"m 684 150 l 752 150 l 752 520 l 63 520 l 63 451 l 684 451 l 684 150 "},"ù":{"x_min":77.578125,"x_max":779.921875,"ha":875,"o":"m 679 0 l 779 0 l 779 722 l 679 722 l 679 330 b 392 63 679 166 589 63 b 178 256 264 63 178 113 l 178 722 l 77 722 l 77 275 b 383 -22 77 102 148 -22 b 676 141 540 -22 646 65 l 679 141 l 679 0 m 359 1027 l 235 1027 l 432 830 l 515 830 l 359 1027 "},"W":{"x_min":-15,"x_max":1452,"ha":1467,"o":"m 1070 136 l 1068 136 l 781 991 l 657 991 l 370 136 l 367 136 l 97 991 l -15 991 l 307 0 l 424 0 l 713 847 l 715 847 l 1008 0 l 1125 0 l 1452 991 l 1343 991 l 1070 136 "},"ï":{"x_min":-78.9375,"x_max":329.390625,"ha":256,"o":"m 74 0 l 175 0 l 175 722 l 74 722 l 74 0 m -78 838 l 21 838 l 21 991 l -78 991 l -78 838 m 228 838 l 329 838 l 329 991 l 228 991 l 228 838 "},">":{"x_min":63.671875,"x_max":752.390625,"ha":833,"o":"m 668 351 l 63 66 l 63 -11 l 752 312 l 752 390 l 63 714 l 63 636 l 668 351 "},"v":{"x_min":-8,"x_max":765,"ha":772,"o":"m 378 118 l 100 722 l -8 722 l 324 0 l 432 0 l 765 722 l 656 722 l 378 118 "},"û":{"x_min":77.578125,"x_max":779.921875,"ha":875,"o":"m 679 0 l 779 0 l 779 722 l 679 722 l 679 330 b 392 64 679 166 589 64 b 178 257 264 64 178 114 l 178 722 l 77 722 l 77 275 b 383 -21 77 103 148 -21 b 676 141 540 -21 646 65 l 679 141 l 679 0 m 179 830 l 281 830 l 428 971 l 575 830 l 677 830 l 483 1028 l 374 1028 l 179 830 "},"Ò":{"x_min":51.71875,"x_max":1107.953125,"ha":1183,"o":"m 51 495 b 579 -25 51 145 303 -25 b 1107 495 856 -25 1107 145 b 579 1016 1107 845 856 1016 b 51 495 303 1016 51 845 m 160 495 b 579 922 160 794 366 922 b 999 495 793 922 999 794 b 579 69 999 197 793 69 b 160 495 366 69 160 197 m 510 1241 l 386 1241 l 583 1044 l 666 1044 l 510 1241 "},"&":{"x_min":96.40625,"x_max":1087.296875,"ha":1081,"o":"m 759 183 b 469 63 670 90 583 63 b 197 268 280 63 197 163 b 423 508 197 377 269 450 l 759 183 m 949 0 l 1087 0 l 879 200 b 956 429 932 279 956 376 l 864 429 b 812 262 860 387 842 302 l 514 550 b 717 790 614 593 717 662 b 480 991 717 881 657 991 b 243 786 337 991 243 908 b 365 568 243 693 295 636 b 96 273 176 488 96 411 b 463 -22 96 104 217 -22 b 823 123 619 -22 753 34 l 949 0 m 624 784 b 454 604 624 713 571 655 b 335 790 345 713 335 750 b 472 905 335 861 402 905 b 624 784 580 905 624 848 "},"˝":{"x_min":-113,"x_max":470,"ha":256,"o":"m -113 830 l -29 830 l 167 1027 l 43 1027 l -113 830 m 189 830 l 272 830 l 470 1027 l 346 1027 l 189 830 "},"Ð":{"x_min":0,"x_max":992.25,"ha":1081,"o":"m 89 0 l 577 0 b 992 495 849 0 992 216 b 562 991 992 806 845 991 l 89 991 l 89 559 l 0 559 l 0 481 l 89 481 l 89 0 m 190 897 l 558 897 b 883 495 782 897 883 758 b 558 94 883 191 732 94 l 190 94 l 190 481 l 541 481 l 541 559 l 190 559 l 190 897 "},"I":{"x_min":100.71875,"x_max":201.4375,"ha":308,"o":"m 100 0 l 201 0 l 201 991 l 100 991 l 100 0 "},"ˉ":{"x_min":-137.46875,"x_max":387.921875,"ha":256,"o":"m -137 890 l 387 890 l 387 968 l -137 968 l -137 890 "},"G":{"x_min":61.859375,"x_max":1069.078125,"ha":1183,"o":"m 991 0 l 1069 0 l 1069 511 l 619 511 l 619 416 l 976 416 b 562 69 946 238 854 69 b 170 495 304 69 170 229 b 581 922 170 756 316 922 b 942 677 756 922 903 845 l 1051 677 b 581 1016 1025 861 852 1016 b 61 495 259 1016 61 795 b 570 -25 61 186 241 -25 b 975 187 761 -25 875 41 l 977 187 l 991 0 "},"`":{"x_min":-68,"x_max":212.390625,"ha":256,"o":"m 55 1027 l -68 1027 l 129 830 l 212 830 l 55 1027 "},"·":{"x_min":99.359375,"x_max":279.03125,"ha":386,"o":"m 99 433 b 189 341 99 383 140 341 b 279 433 238 341 279 383 b 189 525 279 483 238 525 b 99 433 140 525 99 483 "},"r":{"x_min":77.578125,"x_max":511.78125,"ha":514,"o":"m 77 0 l 178 0 l 178 368 b 419 641 178 573 310 641 b 511 633 450 641 480 638 l 511 738 b 451 744 496 741 480 744 b 181 556 284 744 217 643 l 178 556 l 178 722 l 77 722 l 77 0 "},"¿":{"x_min":103.4375,"x_max":808.5,"ha":900,"o":"m 707 62 b 455 -177 705 -76 632 -177 b 204 13 313 -177 204 -105 b 334 206 204 111 265 154 b 513 487 503 336 513 341 l 420 487 b 298 290 420 394 416 376 b 103 13 164 194 103 141 b 455 -272 103 -184 274 -272 b 808 62 692 -272 808 -119 l 707 62 m 525 744 l 408 744 l 408 591 l 525 591 l 525 744 "},"ý":{"x_min":-8,"x_max":765,"ha":772,"o":"m 389 120 l 100 722 l -8 722 l 336 -5 l 290 -105 b 149 -194 257 -177 222 -194 b 77 -191 122 -194 99 -193 l 77 -277 b 174 -280 107 -280 143 -280 b 381 -134 285 -280 329 -248 l 765 722 l 656 722 l 389 120 m 291 830 l 374 830 l 571 1027 l 447 1027 l 291 830 "},"x":{"x_min":-4,"x_max":785,"ha":797,"o":"m -4 0 l 127 0 l 389 300 l 651 0 l 785 0 l 453 375 l 759 722 l 627 722 l 389 447 l 149 722 l 19 722 l 321 375 l -4 0 "},"è":{"x_min":53.28125,"x_max":837.28125,"ha":900,"o":"m 154 413 b 445 658 177 590 315 658 b 736 413 580 658 707 591 l 154 413 m 718 230 b 438 63 683 120 607 63 b 154 336 258 63 154 186 l 837 336 b 438 744 837 663 620 744 b 53 361 174 744 53 562 b 438 -22 53 184 148 -22 b 819 230 672 -22 778 102 l 718 230 m 371 1027 l 247 1027 l 445 830 l 528 830 l 371 1027 "},"º":{"x_min":34.03125,"x_max":556.6875,"ha":603,"o":"m 110 755 b 295 922 110 856 182 922 b 480 755 408 922 480 856 b 295 586 480 651 408 586 b 110 755 182 586 110 651 m 34 755 b 295 525 34 634 118 525 b 556 755 472 525 556 634 b 295 983 556 873 472 983 b 34 755 118 983 34 873 "},"Ø":{"x_min":52,"x_max":1108,"ha":1183,"o":"m 250 212 b 160 495 194 280 160 373 b 580 921 160 793 366 921 b 868 820 686 921 790 889 l 250 212 m 907 778 b 999 495 963 712 999 617 b 580 69 999 197 793 69 b 290 170 471 69 366 101 l 907 778 m 52 16 l 91 -25 l 218 99 b 580 -25 314 16 443 -25 b 1108 495 856 -25 1108 145 b 982 852 1108 648 1060 767 l 1108 974 l 1068 1016 l 941 892 b 580 1016 846 974 716 1016 b 52 495 303 1016 52 845 b 177 140 52 344 99 227 l 52 16 "},"∞":{"x_min":80.3125,"x_max":1107.953125,"ha":1214,"o":"m 1107 401 b 891 633 1107 537 1023 633 b 601 443 764 634 686 537 b 315 633 519 537 430 633 b 80 395 181 633 80 531 b 304 161 80 265 183 161 b 596 351 430 161 514 258 b 879 161 705 231 779 161 b 1107 400 997 161 1107 255 l 1107 401 m 313 222 b 145 393 210 222 145 300 b 303 576 145 488 202 576 b 562 394 417 576 492 477 b 315 222 498 327 416 222 l 313 222 m 883 576 b 1043 395 973 576 1043 511 b 884 222 1043 311 986 222 b 632 400 801 222 739 286 b 882 576 688 455 775 576 l 883 576 "},"μ":{"x_min":77.578125,"x_max":779.921875,"ha":875,"o":"m 679 0 l 779 0 l 779 722 l 679 722 l 679 330 b 392 64 679 166 589 64 b 178 257 280 64 178 114 l 178 722 l 77 722 l 77 -280 l 178 -280 l 178 47 b 383 -22 221 1 291 -22 b 676 141 540 -22 646 65 l 679 141 l 679 0 "},"÷":{"x_min":63.96875,"x_max":752.703125,"ha":833,"o":"m 63 316 l 752 316 l 752 386 l 63 386 l 63 316 m 333 637 b 408 561 333 595 367 561 b 483 637 449 561 483 595 b 408 713 483 679 449 713 b 333 637 367 713 333 679 m 333 65 b 408 -11 333 23 367 -11 b 483 65 449 -11 483 23 b 408 141 483 106 449 141 b 333 65 367 141 333 106 "},"h":{"x_min":77.578125,"x_max":779.921875,"ha":875,"o":"m 77 0 l 178 0 l 178 391 b 465 658 178 555 268 658 b 679 465 593 658 679 608 l 679 0 l 779 0 l 779 447 b 473 744 779 619 709 744 b 181 580 317 744 210 656 l 178 580 l 178 1000 l 77 1000 l 77 0 "},".":{"x_min":130.671875,"x_max":247.71875,"ha":386,"o":"m 130 0 l 247 0 l 247 152 l 130 152 l 130 0 "},";":{"x_min":118.421875,"x_max":247.71875,"ha":386,"o":"m 130 0 l 179 0 b 118 -141 179 -69 172 -116 l 118 -194 b 247 -2 193 -173 247 -118 l 247 152 l 130 152 l 130 0 m 130 550 l 247 550 l 247 702 l 130 702 l 130 550 "},"f":{"x_min":-8.171875,"x_max":457.328125,"ha":438,"o":"m 145 0 l 246 0 l 246 644 l 446 644 l 446 722 l 246 722 l 246 806 b 363 913 246 890 273 913 b 457 908 394 913 426 911 l 457 994 b 344 1000 426 997 382 1000 b 145 818 212 1000 145 954 l 145 722 l -8 722 l -8 644 l 145 644 l 145 0 "},"“":{"x_min":96.640625,"x_max":469.578125,"ha":565,"o":"m 340 644 l 457 644 l 457 797 l 408 797 b 469 939 408 867 415 914 l 469 992 b 340 800 394 971 340 915 l 340 644 m 96 644 l 213 644 l 213 797 l 164 797 b 225 939 164 867 171 914 l 225 992 b 96 800 151 971 96 915 l 96 644 "},"A":{"x_min":-8,"x_max":991,"ha":1003,"o":"m 703 395 l 273 395 l 490 888 l 703 395 m 873 0 l 991 0 l 550 991 l 432 991 l -8 0 l 100 0 l 232 301 l 744 301 l 873 0 "},"6":{"x_min":75,"x_max":834.5,"ha":928,"o":"m 810 733 b 465 983 797 859 702 983 b 75 447 192 983 75 768 b 465 -22 75 97 236 -22 b 834 309 668 -22 834 88 b 465 644 834 525 686 644 b 170 465 290 644 205 533 l 167 468 b 465 897 175 781 277 897 b 709 733 620 897 701 831 l 810 733 m 192 313 b 465 558 192 408 243 558 b 733 311 634 558 733 450 b 465 63 733 156 615 63 b 192 313 269 63 192 195 "},"‘":{"x_min":130.671875,"x_max":259.96875,"ha":386,"o":"m 130 644 l 247 644 l 247 797 l 198 797 b 259 939 198 867 205 914 l 259 992 b 130 800 185 971 130 915 l 130 644 "},"π":{"x_min":13.609375,"x_max":875.203125,"ha":924,"o":"m 864 644 l 875 718 l 234 718 b 13 680 115 718 54 702 l 29 622 b 221 644 65 636 111 644 b 100 0 212 448 161 141 l 190 0 b 313 644 249 119 302 456 l 635 644 l 635 204 b 661 0 635 75 646 20 l 749 0 b 726 218 739 37 726 87 l 726 644 l 864 644 "},"O":{"x_min":51.71875,"x_max":1107.953125,"ha":1183,"o":"m 51 495 b 579 -25 51 145 303 -25 b 1107 495 856 -25 1107 145 b 579 1016 1107 845 856 1016 b 51 495 303 1016 51 845 m 160 495 b 579 922 160 794 366 922 b 999 495 793 922 999 794 b 579 69 999 197 793 69 b 160 495 366 69 160 197 "},"n":{"x_min":77.578125,"x_max":779.921875,"ha":875,"o":"m 679 0 l 779 0 l 779 447 b 473 744 779 619 709 744 b 181 580 317 744 210 656 l 178 580 l 178 722 l 77 722 l 77 0 l 178 0 l 178 391 b 465 658 178 555 268 658 b 679 465 593 658 679 608 l 679 0 "},"3":{"x_min":68.0625,"x_max":826.203125,"ha":928,"o":"m 383 466 l 465 466 b 725 269 607 466 725 431 b 462 63 725 170 665 63 b 168 312 279 63 175 131 l 68 312 b 447 -22 69 95 201 -22 b 826 272 654 -22 826 54 b 612 516 826 418 730 506 l 612 519 b 789 716 729 533 789 627 b 460 983 789 911 623 983 b 92 659 206 983 96 834 l 193 659 b 460 897 193 801 266 897 b 688 716 594 897 688 840 b 449 552 688 588 597 552 l 383 552 l 383 466 "},"9":{"x_min":75.5,"x_max":835,"ha":928,"o":"m 100 227 b 444 -22 112 101 207 -22 b 835 513 717 -22 835 193 b 444 983 835 863 673 983 b 75 651 241 983 75 872 b 444 316 75 436 223 316 b 739 495 619 316 704 427 l 742 493 b 444 63 734 179 632 63 b 200 227 289 63 208 129 l 100 227 m 717 647 b 444 402 717 552 666 402 b 176 650 275 402 176 511 b 444 897 176 804 294 897 b 717 647 640 897 717 765 "},"l":{"x_min":74.859375,"x_max":175.578125,"ha":256,"o":"m 74 0 l 175 0 l 175 1000 l 74 1000 l 74 0 "},"¤":{"x_min":117,"x_max":792,"ha":928,"o":"m 117 188 l 168 136 l 243 212 b 454 136 304 161 382 136 b 665 212 526 136 604 161 l 740 136 l 792 188 l 718 266 b 792 480 768 327 792 405 b 718 694 792 555 768 633 l 792 772 l 740 825 l 665 748 b 454 825 604 800 526 825 b 243 748 382 825 304 800 l 168 825 l 117 772 l 190 694 b 117 480 140 633 117 555 b 190 266 117 405 140 327 l 117 188 m 185 480 b 454 755 185 631 308 755 b 723 480 600 755 723 631 b 454 205 723 329 600 205 b 185 480 308 205 185 329 "},"∂":{"x_min":66.6875,"x_max":779.921875,"ha":881,"o":"m 160 936 b 378 1005 204 968 274 1005 b 691 559 543 1005 691 838 b 690 484 691 538 691 505 l 688 484 b 401 651 664 529 564 651 b 66 305 224 651 66 516 b 371 -18 66 162 159 -18 b 779 547 647 -18 779 266 b 386 1076 779 890 590 1076 b 125 995 258 1076 175 1034 l 160 936 m 378 52 b 157 309 245 52 157 169 b 415 581 157 462 276 581 b 675 400 553 581 650 465 b 379 52 650 220 544 52 l 378 52 "},"4":{"x_min":57.28125,"x_max":841.28125,"ha":928,"o":"m 569 327 l 158 327 l 566 838 l 569 838 l 569 327 m 569 0 l 661 0 l 661 241 l 841 241 l 841 327 l 661 327 l 661 983 l 573 983 l 57 336 l 57 241 l 569 241 l 569 0 "},"p":{"x_min":77.578125,"x_max":854.78125,"ha":926,"o":"m 77 -280 l 178 -280 l 178 144 l 181 144 b 469 -22 227 52 336 -22 b 854 361 733 -22 854 159 b 469 744 854 537 759 744 b 181 577 273 744 208 638 l 178 577 l 178 722 l 77 722 l 77 -280 m 172 361 b 469 658 172 550 302 658 b 754 361 675 658 754 505 b 469 63 754 177 628 63 b 172 361 264 63 172 212 "},"‡":{"x_min":76.21875,"x_max":833,"ha":928,"o":"m 404 -216 l 504 -216 l 504 84 l 833 84 l 833 170 l 504 170 l 504 611 l 833 611 l 833 697 l 504 697 l 504 991 l 404 991 l 404 697 l 76 697 l 76 611 l 404 611 l 404 170 l 76 170 l 76 84 l 404 84 l 404 -216 "},"à":{"x_min":40.828125,"x_max":842.53125,"ha":849,"o":"m 641 279 b 345 55 641 130 481 55 b 141 201 236 55 141 88 b 326 334 141 287 209 323 b 641 388 528 354 596 359 l 641 279 m 164 500 b 406 658 171 615 247 658 b 641 516 573 658 641 620 b 393 420 641 445 613 433 b 40 194 238 412 40 390 b 315 -22 40 31 194 -22 b 646 122 547 -22 615 75 l 649 122 b 758 -5 650 65 656 -5 b 842 5 790 -5 822 1 l 842 75 b 789 72 824 73 807 72 b 733 152 749 72 733 93 l 733 530 b 409 744 733 669 646 744 b 72 500 167 744 87 651 l 164 500 m 347 1027 l 223 1027 l 420 830 l 503 830 l 347 1027 "},"Ü":{"x_min":95.28125,"x_max":963.671875,"ha":1081,"o":"m 963 991 l 862 991 l 862 383 b 529 69 862 123 698 69 b 196 383 360 69 196 123 l 196 991 l 95 991 l 95 383 b 529 -25 95 202 144 -25 b 963 383 914 -25 963 202 l 963 991 m 325 1052 l 426 1052 l 426 1205 l 325 1205 l 325 1052 m 632 1052 l 733 1052 l 733 1205 l 632 1205 l 632 1052 "},"ó":{"x_min":53.078125,"x_max":856.140625,"ha":928,"o":"m 153 361 b 454 658 153 534 264 658 b 755 361 645 658 755 534 b 454 63 755 187 645 63 b 153 361 264 63 153 187 m 53 361 b 454 -22 53 159 182 -22 b 856 361 726 -22 856 159 b 454 744 856 562 726 744 b 53 361 182 744 53 562 m 367 830 l 450 830 l 647 1027 l 524 1027 l 367 830 "},"√":{"x_min":53,"x_max":894,"ha":907,"o":"m 894 1143 l 823 1143 l 517 -37 b 496 -122 510 -63 500 -95 l 495 -122 b 469 -38 487 -94 477 -63 l 248 527 l 53 450 l 74 396 l 193 440 l 453 -210 l 538 -210 l 894 1143 "}}}
